<?xml version="1.0" encoding="utf-8"?>
<!-- Generator: Adobe Illustrator 19.0.0, SVG Export Plug-In . SVG Version: 6.00 Build 0)  -->
<svg version="1.1" id="Layer_1" xmlns="http://www.w3.org/2000/svg" xmlns:xlink="http://www.w3.org/1999/xlink" x="0px" y="0px"
	 viewBox="-79 183.3 451.3 427.7" style="enable-background:new -79 183.3 451.3 427.7;" xml:space="preserve">
<style type="text/css">
	.st0{fill:#F28727;}
	.st1{fill:#2F3339;stroke:#2F3339;stroke-miterlimit:10;}
	.st2{fill:#D77820;}
	.st3{fill:#CCCCCC;}
	.st4{fill:#A7A9AC;}
	.st5{fill:#2F3339;}
	.st6{fill:#F2F2F2;}
	.st7{fill:#999999;}
	.st8{fill:#70CAC3;}
</style>
<g>
	<g id="XMLID_318_">
		<path id="XMLID_320_" class="st0" d="M0.3,182.1l0,202.8c0,78,63.2,141.3,141.3,141.3h7.7c78,0,141.3-63.2,141.3-141.3V182.1H0.3z
			"/>
		<path id="XMLID_319_" class="st1" d="M290.5,182.1v202.8c0,78-63.2,141.3-141.3,141.3h-7.7c-78,0-141.3-63.2-141.3-141.3l0-202.8
			h-7.7v202.8c0,20.1,3.9,39.6,11.7,58c3.7,8.8,8.4,17.3,13.7,25.3c5.3,7.9,11.4,15.3,18.2,22c6.7,6.7,14.2,12.9,22,18.2
			c8,5.4,16.5,10,25.3,13.7c18.4,7.8,37.9,11.7,58,11.7h7.7c20.1,0,39.6-3.9,58-11.7c8.8-3.7,17.3-8.4,25.3-13.7
			c7.9-5.3,15.3-11.4,22-18.2c6.7-6.7,12.9-14.2,18.2-22c5.4-8,10-16.5,13.7-25.3c7.8-18.4,11.7-37.9,11.7-58V182.1H290.5z"/>
	</g>
	<path id="XMLID_316_" class="st2" d="M0.3,182.1V341c0,40.1,32.5,72.6,72.6,72.6h145c8.8,0,17.2-1.6,24.9-4.4
		c1.4-6.3,2.9-12.5,4.3-18.8c0.2,4.5,1.4,32.4,1.4,32.4s2.4-10,4.3-18.1c22.4-12.3,37.6-36.2,37.6-63.6V182.3H0.3V182.1z"/>
	<g id="XMLID_312_">
		<path id="XMLID_315_" class="st3" d="M107.6,222.2c0-4.9,4-8.9,8.9-8.9h56.9c4.9,0,8.9,4,8.9,8.9v92.5c0,4.9-4,8.9-8.9,8.9h-56.9
			c-4.9,0-8.9-4-8.9-8.9V222.2z"/>
		<path id="XMLID_314_" class="st4" d="M184.5,327c0.1-0.6,0.2-1.1,0.2-1.7v-97.1c0-5-4.4-9.1-9.8-9.1H115c-5.4,0-9.8,4.1-9.8,9.1
			v97.1c0,0.6,0.1,1.2,0.2,1.7H184.5z"/>
		<path id="XMLID_313_" class="st5" d="M116.5,323.6c-4.9,0-8.9-4-8.9-8.9v-92.5c0-4.9,4-8.9,8.9-8.9h56.9c4.9,0,8.9,4,8.9,8.9v92.5
			c0,4.9-4,8.9-8.9,8.9L116.5,323.6 M116.5,331.3h56.9c9.2,0,16.6-7.5,16.6-16.6v-92.5c0-9.2-7.5-16.6-16.6-16.6h-56.9
			c-9.2,0-16.6,7.5-16.6,16.6v92.5C99.9,323.9,107.4,331.3,116.5,331.3L116.5,331.3z"/>
	</g>
	<ellipse id="XMLID_311_" class="st5" cx="145" cy="304" rx="8.8" ry="6.7"/>
	<g id="XMLID_308_">
		<path id="XMLID_310_" class="st5" d="M296.2,279.8L296.2,279.8v17.8l0,0c3.7,0,6.6-3,6.6-6.6v-4.5
			C302.8,282.8,299.8,279.8,296.2,279.8z"/>
		<path id="XMLID_309_" class="st5" d="M-5.9,279.8L-5.9,279.8v17.8l0,0c-3.7,0-6.6-3-6.6-6.6l0.3-6.6
			C-12.2,280.7-9.6,279.8-5.9,279.8z"/>
	</g>
	<path id="XMLID_307_" class="st5" d="M284.1,331.6h-32.5c-6.1,0-13.9-6.5-16.2-19.1c-1-5.6-1.6-13-1.7-20.9l0,0v-0.9c0,0,0,0,0-0.1
		l0,0l0,0v-0.1v-0.1l0,0l0,0c0,0,0,0,0-0.1v-0.9l0,0c0-7.9,0.6-15.2,1.7-20.9c2.3-12.6,10.1-19.1,16.2-19.1h32.5
		C304.7,249.6,304.9,331.6,284.1,331.6z"/>
	<path id="XMLID_306_" class="st5" d="M251.5,331.6c-6.1,0-13.9-6.5-16.2-19.1c-1-5.6-1.6-13-1.7-20.9l0,0v-0.9c0,0,0,0,0-0.1l0,0
		l0,0v-0.1v-0.1l0,0l0,0c0,0,0,0,0-0.1v-0.9l0,0c0-7.9,0.6-15.2,1.7-20.9c2.3-12.6,10.1-19.1,16.2-19.1
		C263.2,250.5,263.2,330.8,251.5,331.6z"/>
	<path id="XMLID_305_" class="st5" d="M245.9,290.7c0,16.9-2.5,30.6-5.7,30.6c-3.2,0-5.7-13.7-5.7-30.6c0,0,0,0,0-0.1c0,0,0,0,0-0.1
		c0-16.9,2.5-30.6,5.7-30.6c3.2,0,5.7,13.7,5.7,30.6C245.9,290.6,245.9,290.6,245.9,290.7L245.9,290.7z"/>
	<path id="XMLID_304_" class="st5" d="M5.8,331.6h32.5c6.1,0,13.9-6.5,16.2-19.1c1-5.6,1.6-13,1.7-20.9l0,0v-0.9c0,0,0,0,0-0.1l0,0
		l0,0v-0.1v-0.1l0,0l0,0c0,0,0,0,0-0.1v-0.9l0,0c0-7.9-0.6-15.2-1.7-20.9c-2.3-12.6-10.1-19.1-16.2-19.1H5.8
		C-14.8,249.6-15,331.6,5.8,331.6z"/>
	<path id="XMLID_303_" class="st5" d="M38.4,331.6c6.1,0,13.9-6.5,16.2-19.1c1-5.6,1.6-13,1.7-20.9l0,0v-0.9c0,0,0,0,0-0.1l0,0l0,0
		v-0.1v-0.1l0,0l0,0c0,0,0,0,0-0.1v-0.9l0,0c0-7.9-0.6-15.2-1.7-20.9c-2.3-12.6-10.1-19.1-16.2-19.1
		C26.7,250.5,26.7,330.8,38.4,331.6z"/>
	<path id="XMLID_302_" class="st5" d="M44,290.7c0,16.9,2.5,30.6,5.7,30.6c3.1,0,5.7-13.7,5.7-30.6c0,0,0,0,0-0.1c0,0,0,0,0-0.1
		c0-16.9-2.5-30.6-5.7-30.6c-3.1,0-5.7,13.7-5.7,30.6C44,290.6,44,290.6,44,290.7L44,290.7z"/>
	<g id="XMLID_229_">
		<g id="XMLID_299_">
			<path id="XMLID_301_" class="st3" d="M44.8,304.3h93.4c1.7,0,3.4,0.4,4.9,1.3c0.6,0.3,1.3,0.6,1.9,0.6c0.7,0,1.3-0.3,1.9-0.6
				c1.5-0.9,3.2-1.3,4.9-1.3h93.6c0.4-4.1,0.6-8.7,0.6-13.6c0-4.8-0.2-9.3-0.6-13.4c-2.6-0.1-5.6-0.2-7.2-0.3c-1,0-1.9-0.1-2.9-0.1
				c-25.1-1.1-36.7-0.7-48.7-9.3c-19.8-14.2-18.8-31-41.5-31s-21.7,16.7-41.5,31c-12,8.6-23.7,8.2-48.7,9.3c-0.9,0-1.9,0.1-2.9,0.1
				c-1.7,0.1-4.7,0.2-7.2,0.3c-0.4,4-0.6,8.6-0.6,13.4C44.2,295.6,44.5,300.2,44.8,304.3z"/>
			<path id="XMLID_300_" class="st5" d="M145.1,306.2c-0.7,0-1.3-0.3-1.9-0.6c-1.5-0.8-3.2-1.3-4.9-1.3H44.9
				c-0.4-4.1-0.6-8.7-0.6-13.6c0-4.8,0.2-9.3,0.6-13.4c2.6-0.1,5.6-0.2,7.2-0.3c1,0,1.9-0.1,2.9-0.1c25.1-1.1,36.7-0.7,48.7-9.3
				c19.8-14.2,18.8-31,41.5-31s21.7,16.7,41.5,31c12,8.6,23.7,8.2,48.7,9.3c0.9,0,1.9,0.1,2.9,0.1c1.7,0.1,4.7,0.2,7.2,0.3
				c0.4,4,0.6,8.6,0.6,13.4c0,4.9-0.2,9.5-0.6,13.6h-93.6c-1.7,0-3.4,0.4-4.9,1.3C146.4,305.9,145.7,306.2,145.1,306.2 M145.1,313.9
				c1.9,0,3.8-0.5,5.7-1.6c0.4-0.2,0.7-0.3,1.1-0.3h93.6h7l0.6-7c0.4-4.5,0.6-9.3,0.6-14.3c0-4.9-0.2-9.6-0.6-14.1l-0.6-6.8
				l-6.8-0.3c-1.1,0-2.2-0.1-3.3-0.1c-1.5-0.1-2.9-0.1-3.9-0.1s-2-0.1-2.9-0.1c-2.5-0.1-4.9-0.2-7.2-0.3
				c-19.5-0.8-28.4-1.2-37.4-7.6c-6.7-4.8-10.7-9.9-14.5-14.8c-6.7-8.6-13.7-17.6-31.5-17.6s-24.7,8.9-31.5,17.6
				c-3.8,4.9-7.8,10-14.5,14.8c-8.9,6.4-17.8,6.8-37.4,7.6c-2.3,0.1-4.7,0.2-7.2,0.3c-1,0-1.9,0.1-2.9,0.1c-0.9,0-2.4,0.1-3.9,0.1
				c-1.1,0-2.2,0.1-3.3,0.1l-6.8,0.3l-0.6,6.8c-0.4,4.4-0.6,9.1-0.6,14.1s0.2,9.8,0.6,14.3l0.6,7h7h93.4c0.4,0,0.8,0.1,1.1,0.3
				C141.2,313.3,143.2,313.9,145.1,313.9L145.1,313.9z"/>
		</g>
		<path id="XMLID_298_" class="st6" d="M58.3,300.1h32c0.1,0.1,0.3,0.2,0.4,0.3c0.3,0.2,2,0.6,2.8,1.1c-0.6-0.9-1-5.1-0.9-6.6
			c0.7,2,3.6,5.1,3.6,5.1h135.4c3.6,0,6.5-2.9,6.5-6.5s-2.9-6.5-6.5-6.5H58.2c-3.6,0-6.5,2.9-6.5,6.5
			C51.8,297.2,54.7,300.1,58.3,300.1z"/>
		<path id="XMLID_297_" class="st6" d="M164.8,244.6c0.4,0.4,0.7,0.8,1,1.1C165.5,245.4,165.2,245,164.8,244.6z"/>
		<path id="XMLID_296_" class="st6" d="M156.9,238.9c0.7,0.3,1.3,0.6,1.9,1C158.2,239.5,157.6,239.2,156.9,238.9z"/>
		<path id="XMLID_295_" class="st6" d="M153.8,237.8c0.3,0.1,0.7,0.2,1,0.3C154.5,237.9,154.1,237.8,153.8,237.8z"/>
		<path id="XMLID_294_" class="st6" d="M142.9,236.7c0.7,0,1.4,0,2.1,0C144.2,236.7,143.6,236.7,142.9,236.7z"/>
		<path id="XMLID_293_" class="st6" d="M150.8,237.1c0.7,0.1,1.3,0.2,1.9,0.4C152,237.3,151.4,237.2,150.8,237.1z"/>
		<path id="XMLID_292_" class="st6" d="M167.2,247.3c0,0.1,0.1,0.1,0.1,0.2C167.3,247.4,167.2,247.3,167.2,247.3z"/>
		<path id="XMLID_291_" class="st6" d="M245.9,292.3c0,0.2,0,0.3,0,0.5C245.9,292.6,245.9,292.5,245.9,292.3z"/>
		<path id="XMLID_290_" class="st6" d="M245.9,293.9c0,0.2,0,0.4,0,0.6C245.9,294.3,245.9,294.1,245.9,293.9z"/>
		<path id="XMLID_289_" class="st6" d="M245.5,279.9c0,0.4,0.1,0.8,0.1,1.3C245.6,280.7,245.6,280.3,245.5,279.9z"/>
		<path id="XMLID_288_" class="st6" d="M175.3,257.4C175.4,257.4,175.4,257.5,175.3,257.4C175.4,257.5,175.4,257.4,175.3,257.4z"/>
		<path id="XMLID_287_" class="st6" d="M245.4,278.6c0,0.2,0,0.3,0,0.5C245.5,278.9,245.5,278.8,245.4,278.6z"/>
		<path id="XMLID_286_" class="st6" d="M170,250.8c0.3,0.3,0.5,0.6,0.8,1C170.5,251.4,170.2,251.1,170,250.8z"/>
		<path id="XMLID_285_" class="st6" d="M130.4,240.2c0.6-0.4,1.2-0.7,1.9-1C131.7,239.5,131,239.8,130.4,240.2z"/>
		<path id="XMLID_284_" class="st6" d="M114.6,257.3c0.5-0.6,1-1.2,1.5-1.8C115.6,256.2,115.1,256.8,114.6,257.3z"/>
		<path id="XMLID_283_" class="st6" d="M118.9,252.1c0.3-0.3,0.5-0.7,0.8-1C119.4,251.4,119.2,251.7,118.9,252.1z"/>
		<path id="XMLID_282_" class="st6" d="M116.9,254.7c0.3-0.4,0.6-0.7,0.8-1C117.4,254,117.2,254.3,116.9,254.7z"/>
		<path id="XMLID_281_" class="st6" d="M112.8,259.4c0.6-0.6,1.2-1.3,1.7-1.9C113.9,258.2,113.4,258.8,112.8,259.4z"/>
		<path id="XMLID_280_" class="st6" d="M106.9,264.9c0.8-0.7,1.6-1.4,2.3-2C108.5,263.6,107.8,264.3,106.9,264.9z"/>
		<path id="XMLID_279_" class="st6" d="M104.4,267c0.6-0.4,1.2-0.9,1.7-1.3C105.6,266.1,105,266.5,104.4,267z"/>
		<path id="XMLID_278_" class="st6" d="M245.8,295.9c0,0.2,0,0.5,0,0.7C245.8,296.4,245.8,296.1,245.8,295.9z"/>
		<path id="XMLID_277_" class="st6" d="M133.7,238.6c0.5-0.2,0.9-0.4,1.4-0.5C134.6,238.2,134.1,238.4,133.7,238.6z"/>
		<path id="XMLID_276_" class="st6" d="M119.9,250.8c0.9-1.2,1.8-2.3,2.7-3.3C121.7,248.5,120.8,249.7,119.9,250.8z"/>
		<path id="XMLID_275_" class="st6" d="M132.3,239.2c0.4-0.2,0.9-0.4,1.4-0.6C133.2,238.8,132.8,239,132.3,239.2z"/>
		<path id="XMLID_274_" class="st6" d="M123.2,246.7c0.3-0.3,0.6-0.6,0.8-1C123.7,246.1,123.5,246.4,123.2,246.7z"/>
		<path id="XMLID_273_" class="st6" d="M129.3,241c0.4-0.3,0.8-0.5,1.2-0.8C130,240.4,129.6,240.7,129.3,241z"/>
		<path id="XMLID_272_" class="st6" d="M245.4,303c0-0.4,0.1-0.9,0.1-1.3l0,0C245.5,302.2,245.5,302.6,245.4,303z"/>
		<path id="XMLID_271_" class="st6" d="M44.6,304.3c0-0.5-0.1-1.1-0.1-1.6C44.5,303.2,44.5,303.7,44.6,304.3z"/>
		<path id="XMLID_270_" class="st6" d="M44.4,302.5c0-0.5-0.1-1-0.1-1.5C44.4,301.5,44.4,302,44.4,302.5z"/>
		<path id="XMLID_269_" class="st6" d="M44.4,278.9c0-0.1,0-0.2,0-0.3C44.5,278.8,44.4,278.9,44.4,278.9z"/>
		<path id="XMLID_268_" class="st6" d="M245.6,301.1c0,0.1,0,0.1,0,0.2c0.1-0.8,0.1-1.7,0.1-2.5c0,0.7-0.1,1.4-0.1,2.1
			C245.6,301,245.6,301,245.6,301.1z"/>
		<path id="XMLID_267_" class="st6" d="M128.7,241.4c-1.7,1.2-3.1,2.7-4.6,4.3C125.6,244.1,127,242.6,128.7,241.4z"/>
		<path id="XMLID_266_" class="st6" d="M245.8,297.4c0,0.3,0,0.5,0,0.8C245.7,297.9,245.7,297.7,245.8,297.4z"/>
		<path id="XMLID_265_" class="st6" d="M111.4,260.8c-0.7,0.7-1.4,1.4-2.1,2C110,262.2,110.7,261.5,111.4,260.8z"/>
		<path id="XMLID_264_" class="st6" d="M44.3,280.7c0-0.2,0-0.4,0-0.6C44.3,280.3,44.3,280.5,44.3,280.7z"/>
		<path id="XMLID_263_" class="st6" d="M44.3,301c-0.1-1.1-0.1-2.3-0.2-3.5C44.2,298.7,44.3,299.8,44.3,301z"/>
		<path id="XMLID_262_" class="st7" d="M44.4,280.1c0-0.4,0.1-0.8,0.1-1.2C44.4,279.3,44.4,279.7,44.4,280.1z"/>
		<path id="XMLID_261_" class="st7" d="M44.3,281.7c0-0.3,0-0.6,0.1-1C44.3,281,44.3,281.3,44.3,281.7z"/>
		<path id="XMLID_260_" class="st7" d="M124,245.8l0.1-0.1C124.1,245.7,124.1,245.7,124,245.8z"/>
		<path id="XMLID_259_" class="st7" d="M112.8,259.4c-0.4,0.5-0.9,0.9-1.4,1.4C111.9,260.4,112.3,259.9,112.8,259.4z"/>
		<path id="XMLID_258_" class="st7" d="M114.5,257.5c0.1-0.1,0.1-0.1,0.2-0.2C114.6,257.4,114.5,257.5,114.5,257.5z"/>
		<path id="XMLID_257_" class="st7" d="M116.1,255.6c0.3-0.3,0.5-0.6,0.8-0.9C116.6,255,116.4,255.3,116.1,255.6z"/>
		<path id="XMLID_256_" class="st7" d="M44.6,277.3c0,0.4-0.1,0.9-0.1,1.4C44.5,278.2,44.5,277.8,44.6,277.3z"/>
		<path id="XMLID_255_" class="st7" d="M117.7,253.6c0.4-0.5,0.8-1,1.2-1.6C118.5,252.6,118.1,253.1,117.7,253.6z"/>
		<path id="XMLID_254_" class="st7" d="M183,264.9c-3-2.5-5.4-5-7.6-7.4C177.5,259.9,180,262.5,183,264.9z"/>
		<path id="XMLID_253_" class="st7" d="M122.6,247.5c0.2-0.3,0.4-0.5,0.6-0.7C123,247,122.8,247.2,122.6,247.5z"/>
		<path id="XMLID_252_" class="st7" d="M119.7,251.1c0.1-0.1,0.1-0.2,0.2-0.3C119.8,250.9,119.8,251,119.7,251.1z"/>
		<path id="XMLID_251_" class="st7" d="M164.8,244.6c-1.6-1.7-3.4-3.2-5.4-4.4C161.5,241.4,163.2,242.9,164.8,244.6z"/>
		<path id="XMLID_250_" class="st7" d="M245.5,279.1c0,0.3,0,0.5,0.1,0.8C245.5,279.6,245.5,279.4,245.5,279.1z"/>
		<path id="XMLID_249_" class="st7" d="M245.7,298.2c0,0.2,0,0.4,0,0.6C245.7,298.6,245.7,298.4,245.7,298.2z"/>
		<path id="XMLID_248_" class="st7" d="M245.5,301.7c0-0.1,0-0.3,0-0.4C245.5,301.5,245.5,301.6,245.5,301.7L245.5,301.7z"/>
		<path id="XMLID_247_" class="st7" d="M245.9,294.5c0,0.5,0,1,0,1.4C245.8,295.4,245.8,295,245.9,294.5z"/>
		<path id="XMLID_246_" class="st7" d="M245.3,277.3c0,0.4,0.1,0.9,0.1,1.3C245.4,278.2,245.4,277.7,245.3,277.3z"/>
		<path id="XMLID_245_" class="st7" d="M183,264.9c0.5,0.5,1.1,0.9,1.7,1.4C184.1,265.8,183.5,265.4,183,264.9z"/>
		<path id="XMLID_244_" class="st7" d="M245.9,290.6L245.9,290.6c0-3.3-0.1-6.5-0.3-9.4l0,0v-0.1
			C245.8,284.2,245.9,287.4,245.9,290.6C245.9,290.7,245.9,290.7,245.9,290.6z"/>
		<path id="XMLID_243_" class="st7" d="M245.9,292.8c0,0.4,0,0.7,0,1.1C245.9,293.6,245.9,293.2,245.9,292.8z"/>
		<path id="XMLID_242_" class="st7" d="M245.8,296.6c0,0.3,0,0.5,0,0.8C245.8,297.1,245.8,296.9,245.8,296.6z"/>
		<path id="XMLID_241_" class="st7" d="M245.9,290.7c0,0.5,0,1.1,0,1.6C245.9,291.8,245.9,291.2,245.9,290.7z"/>
		<path id="XMLID_240_" class="st7" d="M245.4,303c0,0.4-0.1,0.8-0.1,1.3C245.4,303.9,245.4,303.4,245.4,303z"/>
		<path id="XMLID_239_" class="st7" d="M165.9,245.8c0.4,0.5,0.8,1,1.3,1.5C166.7,246.8,166.3,246.3,165.9,245.8z"/>
		<path id="XMLID_238_" class="st7" d="M44.3,301L44.3,301L44.3,301z"/>
		<path id="XMLID_237_" class="st7" d="M154.8,238c0.7,0.2,1.5,0.5,2.1,0.8C156.2,238.6,155.5,238.3,154.8,238z"/>
		<path id="XMLID_236_" class="st7" d="M152.6,237.4c0.4,0.1,0.8,0.2,1.2,0.3C153.4,237.6,153,237.5,152.6,237.4z"/>
		<path id="XMLID_235_" class="st7" d="M167.3,247.4c0.9,1.1,1.8,2.2,2.7,3.3C169.1,249.6,168.2,248.5,167.3,247.4z"/>
		<path id="XMLID_234_" class="st7" d="M44.5,302.7c0-0.1,0-0.1,0-0.2C44.5,302.5,44.5,302.6,44.5,302.7z"/>
		<path id="XMLID_233_" class="st7" d="M170.7,251.7c1.4,1.8,2.9,3.7,4.6,5.7C173.6,255.5,172.1,253.6,170.7,251.7z"/>
		<path id="XMLID_232_" class="st7" d="M44.2,297.5L44.2,297.5L44.2,297.5z"/>
		<path id="XMLID_231_" class="st6" d="M44.2,283c0-0.4,0-0.9,0.1-1.3C44.2,282.1,44.2,282.5,44.2,283z"/>
		<path id="XMLID_230_" class="st6" d="M44.2,283.1c0,0.4,0,0.8-0.1,1.3C44.2,283.9,44.2,283.5,44.2,283.1z"/>
	</g>
	<path id="XMLID_228_" class="st6" d="M169.2,252.1c-6.4-8.2-10.9-14-24.3-14c-13.3,0-17.9,5.9-24.3,14c-1.1,1.4-2.2,2.9-3.5,4.4
		c-2.4,2.9-0.3,7.2,3.4,7.2h48.7c3.7,0,5.7-4.3,3.4-7.2C171.5,255,170.3,253.5,169.2,252.1z"/>
	<path id="XMLID_227_" class="st6" d="M142.6,287.9c11.5,0,19.5-7.2,19.5-25.4c0-10.8-8.7-19.5-19.5-19.5s-19.5,8.7-19.5,19.5
		C123.1,280.6,131.1,287.9,142.6,287.9z"/>
	<path id="XMLID_226_" class="st5" d="M145,288.6c11.5,0,19.5-7.2,19.5-25.4c0-10.8-8.7-19.5-19.5-19.5s-19.5,8.7-19.5,19.5
		C125.5,281.3,133.4,288.6,145,288.6z"/>
	<circle id="XMLID_225_" class="st5" cx="145" cy="263.1" r="19.5"/>
	<path id="XMLID_223_" class="st8" d="M130.4,267.4c0-8,6.5-14.6,14.6-14.6c8,0,14.6,6.5,14.6,14.6c0,0.2,0,0.4,0,0.5
		c0.5-1.5,0.8-3.2,0.8-4.9c0-8.5-6.9-15.4-15.4-15.4s-15.4,6.9-15.4,15.4c0,1.7,0.3,3.3,0.8,4.9
		C130.4,267.8,130.4,267.6,130.4,267.4z"/>
	<path id="XMLID_222_" class="st3" d="M151.3,265.5l1.7,5c0.3,1,0.1,2.1-0.6,2.9l-3.5,4c-0.7,0.8-1.8,1.2-2.8,1l-5.2-1
		c-1-0.2-1.9-0.9-2.3-2l-1.7-5c-0.3-1-0.1-2.1,0.6-2.9l3.5-4c0.7-0.8,1.8-1.2,2.8-1l5.2,1C150.1,263.7,150.9,264.5,151.3,265.5z"/>
	<circle id="XMLID_221_" class="st5" cx="145" cy="271.3" r="4.3"/>
	<g id="XMLID_179_">
		<circle id="XMLID_181_" class="st5" cx="172.7" cy="228.3" r="5.2"/>
		<circle id="XMLID_180_" class="st5" cx="117.3" cy="228.3" r="5.2"/>
	</g>
	<g id="XMLID_176_">
		<circle id="XMLID_178_" class="st5" cx="172.7" cy="310.8" r="5.2"/>
		<circle id="XMLID_177_" class="st5" cx="117.3" cy="310.8" r="5.2"/>
	</g>
	<path class="st5" d="M37.9,281.2c0.5-0.1,1.1,0.5,1.7,0c0.1-0.1,0.1,0,0.2,0c0.3,0,0.6,0,1,0c0.2,0,0.4,0,0.6,0.1
		c0.4,0.2,0.8,0,1.1,0c0.6-0.1,1.2-0.1,1.8,0c0.3,0.1,0.7,0.1,1,0.4c0.1,0.1,0.2,0.1,0.3,0c0.6-0.2,1.2-0.1,1.8,0
		c0.8,0.2,1.6,0.1,2.3,0.2c0.7,0.1,1.3,0,2,0.3c0.5,0.2,0.9-0.1,1.4,0c0.2,0,0.5,0.1,0.7,0.1c0.2,0,0.4,0,0.7,0
		c0.8-0.2,1.6-0.1,2.4,0c0.9,0.1,1.7,0.2,2.6,0.3c0.2,0,0.4,0,0.6,0c1.2-0.1,2.4,0.2,3.6,0.3c0.4,0,0.9,0.1,1.3,0.1
		c0.7,0,1.3,0.1,2,0.2c0.9,0.1,1.8,0.2,2.7,0.3c0.6,0.1,2.7,0.2,3.3,0.3c0.4,0,2.2,0.2,2.8,0.2c0.1,0,3.8,0.2,3.8,0.2
		c0.4,0,0.9,0.1,1.4,0.1c0.1,0,0.3,0,0.4,0c0.4,0,0.5,0,0.5,0c-0.1,0-0.3,0-0.7,0c-0.5,0-0.6,0-0.8,0c-0.6,0-1.1,0.1-1.7,0.1
		c-0.1,0-7.1,0.4-7.6,0.5c-0.1,0-0.1,0-0.2,0c-0.5,0-0.9,0.1-1.4,0.1c-0.1,0-0.1,0-0.2,0.1c-0.1,0-1.7,0-1.9,0.1
		c-0.3,0.1-0.7,0.1-1,0.1c-0.3,0-0.5,0.1-0.8,0.1c-0.1,0-0.1,0-0.2,0c-0.7-0.1-1.3,0.1-2,0.2c-0.4,0.1-0.8,0-1.2,0
		c-0.2,0-0.4,0.1-0.6,0.1l-0.9,0.1c-0.1,0-0.3,0.1-0.4,0.1c-0.2,0-0.3,0.1-0.5,0c-0.4-0.1-0.7,0-1.1,0c-0.5,0-0.9,0.1-1.4,0.1
		c-0.5,0-1,0.1-1.5,0.1c-0.9,0.1-1.7,0.2-2.6,0.3c-0.8,0.1-1.6,0.2-2.5,0.3c-0.6,0.1-1.3,0.2-1.9,0.2c-0.4,0-0.8,0-1.3,0.1
		c-0.1,0-0.2,0-0.3,0c-0.7-0.3-7.1,0.5-7.7,0.5c-0.5,0-2.4,1-2.5-0.1c-0.1-1-0.2-2.1-0.3-3.1c0-0.7,0.1-1.4,0.1-2
		c0-0.6,0.3-0.8,0.5-0.8C37.6,281.7,37.7,281.2,37.9,281.2z"/>
	<path class="st5" d="M252.5,287.7c-0.8,0.1-1.6-0.5-2.4,0c-0.1,0.1-0.2,0-0.3,0c-0.5,0-0.9,0-1.4,0c-0.3,0-0.6,0-0.9-0.1
		c-0.6-0.2-1.1,0-1.7,0c-0.9,0.1-1.8,0.1-2.7,0c-0.5-0.1-1-0.1-1.4-0.4c-0.1-0.1-0.3-0.1-0.4,0c-0.9,0.2-1.7,0.1-2.6,0
		c-1.1-0.2-2.3-0.1-3.4-0.2c-1-0.1-2,0-2.9-0.3c-0.8-0.2-1.4,0.1-2.1,0c-0.4,0-0.7-0.1-1.1-0.1c-0.3,0-0.6,0-1,0
		c-1.2,0.2-2.3,0.1-3.5,0c-1.3-0.1-2.5-0.2-3.8-0.3c-0.3,0-0.6,0-0.9,0c-1.7,0.1-3.5-0.2-5.2-0.3c-0.6,0-1.3-0.1-1.9-0.1
		c-1,0-2-0.1-2.9-0.2c-1.3-0.1-2.6-0.2-3.9-0.3c-0.8,0-4-0.2-4.8-0.3c-0.6,0-3.3-0.2-4-0.2c-0.1,0-5.5-0.2-5.6-0.2
		c-0.6,0-1.3-0.1-2-0.1c-0.2,0-0.4,0-0.6,0c-0.6,0-0.8,0-0.7,0c0.1,0,0.5,0,1,0c0.6,0,0.8,0,1.2,0c0.7,0,1.7-0.1,2.4-0.1
		c0.1,0,10.5-0.4,11.1-0.5c0.1,0,0.2,0,0.3,0c0.7,0,1.3-0.1,2-0.1c0.1,0,0.2,0,0.3-0.1c0.1,0,2.6,0,2.8-0.1c0.5-0.1,1-0.1,1.5-0.1
		c0.4,0,0.8-0.1,1.2-0.1c0.1,0,0.2,0,0.3,0c1,0.1,1.9-0.1,2.9-0.2c0.6-0.1,1.2,0,1.8,0c0.3,0,0.6-0.1,0.8-0.1l1.3-0.1
		c0.2,0,0.4-0.1,0.6-0.1c0.2,0,0.5-0.1,0.7,0c0.5,0.1,1.1,0,1.6,0l2.1-0.1c0.7,0,1.4-0.1,2.1-0.1c1.3-0.1,2.5-0.2,3.8-0.3l3.6-0.3
		c0.9-0.1,1.8-0.2,2.8-0.2c0.6,0,1.2,0,1.9-0.1c0.1,0,0.3,0,0.4,0c1,0.3,10.4-0.5,11.3-0.5c0.8,0,3.5-1,3.7,0.1
		c0.2,1,0.4,2.1,0.4,3.1c0,0.7-0.1,1.4-0.2,2c-0.1,0.6-0.4,0.8-0.8,0.8C253.1,287.2,252.8,287.7,252.5,287.7z"/>
</g>
</svg>
