<?xml version="1.0" encoding="utf-8"?>
<!-- Generator: Adobe Illustrator 19.0.0, SVG Export Plug-In . SVG Version: 6.00 Build 0)  -->
<svg version="1.1" id="Layer_1" xmlns="http://www.w3.org/2000/svg" xmlns:xlink="http://www.w3.org/1999/xlink" x="0px" y="0px"
	 viewBox="-79 183.3 451.3 427.7" style="enable-background:new -79 183.3 451.3 427.7;" xml:space="preserve">
<style type="text/css">
	.st0{fill:#F28727;}
	.st1{fill:#2F3339;stroke:#2F3339;stroke-miterlimit:10;}
	.st2{fill:#D77820;}
	.st3{fill:#CCCCCC;}
	.st4{fill:#A7A9AC;}
	.st5{fill:#2F3339;}
	.st6{fill:#F2F2F2;}
	.st7{fill:#999999;}
	.st8{fill:#70CAC3;}
	.st9{fill:#ECD063;}
</style>
<g>
	<g id="XMLID_318_">
		<path id="XMLID_320_" class="st0" d="M291.5,612.8V410c0-78-63.2-141.3-141.3-141.3h-7.7c-78,0-141.3,63.2-141.3,141.3v202.8
			H291.5z"/>
		<path id="XMLID_319_" class="st1" d="M1.3,612.8V410c0-78,63.2-141.3,141.3-141.3h7.7c78,0,141.3,63.2,141.3,141.3v202.8h7.7V410
			c0-20.1-3.9-39.6-11.7-58c-3.7-8.8-8.4-17.3-13.7-25.3c-5.3-7.9-11.4-15.3-18.2-22c-6.7-6.7-14.2-12.9-22-18.2
			c-8-5.4-16.5-10-25.3-13.7c-18.4-7.8-37.9-11.7-58-11.7h-7.7c-20.1,0-39.6,3.9-58,11.7c-8.8,3.7-17.3,8.4-25.3,13.7
			c-7.9,5.3-15.3,11.4-22,18.2c-6.7,6.7-12.9,14.2-18.2,22c-5.4,8-10,16.5-13.7,25.3c-7.8,18.4-11.7,37.9-11.7,58v202.8H1.3z"/>
	</g>
	<path id="XMLID_316_" class="st2" d="M291.5,612.8V453.9c0-40.1-32.5-72.6-72.6-72.6h-145c-8.8,0-17.2,1.6-24.9,4.4
		c-1.4,6.3-2.9,12.5-4.3,18.8c-0.2-4.5-1.4-32.4-1.4-32.4s-2.4,10-4.3,18.1c-22.4,12.3-37.6,36.2-37.6,63.6v158.8h290.1V612.8z"/>
	<g id="XMLID_312_">
		<path id="XMLID_315_" class="st3" d="M184.2,572.7c0,4.9-4,8.9-8.9,8.9h-56.9c-4.9,0-8.9-4-8.9-8.9v-92.5c0-4.9,4-8.9,8.9-8.9
			h56.9c4.9,0,8.9,4,8.9,8.9V572.7z"/>
		<path id="XMLID_314_" class="st4" d="M107.3,467.9c-0.1,0.6-0.2,1.1-0.2,1.7v97.1c0,5,4.4,9.1,9.8,9.1h59.9c5.4,0,9.8-4.1,9.8-9.1
			v-97.1c0-0.6-0.1-1.2-0.2-1.7H107.3z"/>
		<path id="XMLID_313_" class="st5" d="M175.3,471.3c4.9,0,8.9,4,8.9,8.9v92.5c0,4.9-4,8.9-8.9,8.9h-56.9c-4.9,0-8.9-4-8.9-8.9
			v-92.5c0-4.9,4-8.9,8.9-8.9L175.3,471.3 M175.3,463.5h-56.9c-9.2,0-16.6,7.5-16.6,16.6v92.5c0,9.2,7.5,16.6,16.6,16.6h56.9
			c9.2,0,16.6-7.5,16.6-16.6v-92.5C191.9,471,184.4,463.5,175.3,463.5L175.3,463.5z"/>
	</g>
	<ellipse id="XMLID_311_" class="st5" cx="146.8" cy="490.9" rx="8.8" ry="6.7"/>
	<g id="XMLID_308_">
		<path id="XMLID_310_" class="st5" d="M-4.4,515L-4.4,515v-17.8l0,0c-3.7,0-6.6,3-6.6,6.6v4.5C-11,512-8,515-4.4,515z"/>
		<path id="XMLID_309_" class="st5" d="M297.7,515L297.7,515v-17.8l0,0c3.7,0,6.6,3,6.6,6.6l-0.3,6.6C304,514.2,301.4,515,297.7,515
			z"/>
	</g>
	<path id="XMLID_307_" class="st5" d="M7.7,463.3h32.5c6.1,0,13.9,6.5,16.2,19.1c1,5.6,1.6,13,1.7,20.9l0,0v0.9c0,0,0,0,0,0.1l0,0
		l0,0v0.1v0.1l0,0l0,0c0,0,0,0,0,0.1v0.9l0,0c0,7.9-0.6,15.2-1.7,20.9c-2.3,12.6-10.1,19.1-16.2,19.1H7.7
		C-12.9,545.3-13.1,463.3,7.7,463.3z"/>
	<path id="XMLID_306_" class="st5" d="M40.3,463.3c6.1,0,13.9,6.5,16.2,19.1c1,5.6,1.6,13,1.7,20.9l0,0v0.9c0,0,0,0,0,0.1l0,0l0,0
		v0.1v0.1l0,0l0,0c0,0,0,0,0,0.1v0.9l0,0c0,7.9-0.6,15.2-1.7,20.9c-2.3,12.6-10.1,19.1-16.2,19.1C28.6,544.3,28.6,464,40.3,463.3z"
		/>
	<path id="XMLID_305_" class="st5" d="M45.9,504.1c0-16.9,2.5-30.6,5.7-30.6s5.7,13.7,5.7,30.6c0,0,0,0,0,0.1c0,0,0,0,0,0.1
		c0,16.9-2.5,30.6-5.7,30.6s-5.7-13.7-5.7-30.6C45.9,504.3,45.9,504.3,45.9,504.1L45.9,504.1z"/>
	<path id="XMLID_304_" class="st5" d="M286,463.3h-32.5c-6.1,0-13.9,6.5-16.2,19.1c-1,5.6-1.6,13-1.7,20.9l0,0v0.9c0,0,0,0,0,0.1
		l0,0l0,0v0.1v0.1l0,0l0,0c0,0,0,0,0,0.1v0.9l0,0c0,7.9,0.6,15.2,1.7,20.9c2.3,12.6,10.1,19.1,16.2,19.1H286
		C306.6,545.3,306.8,463.3,286,463.3z"/>
	<path id="XMLID_303_" class="st5" d="M253.4,463.3c-6.1,0-13.9,6.5-16.2,19.1c-1,5.6-1.6,13-1.7,20.9l0,0v0.9c0,0,0,0,0,0.1l0,0
		l0,0v0.1v0.1l0,0l0,0c0,0,0,0,0,0.1v0.9l0,0c0,7.9,0.6,15.2,1.7,20.9c2.3,12.6,10.1,19.1,16.2,19.1
		C265.1,544.3,265.1,464,253.4,463.3z"/>
	<path id="XMLID_302_" class="st5" d="M247.8,504.1c0-16.9-2.5-30.6-5.7-30.6c-3.1,0-5.7,13.7-5.7,30.6c0,0,0,0,0,0.1c0,0,0,0,0,0.1
		c0,16.9,2.5,30.6,5.7,30.6c3.1,0,5.7-13.7,5.7-30.6C247.8,504.3,247.8,504.3,247.8,504.1L247.8,504.1z"/>
	<g id="XMLID_229_">
		<g id="XMLID_299_">
			<path id="XMLID_301_" class="st3" d="M247,490.5h-93.4c-1.7,0-3.4-0.4-4.9-1.3c-0.6-0.3-1.3-0.6-1.9-0.6c-0.7,0-1.3,0.3-1.9,0.6
				c-1.5,0.9-3.2,1.3-4.9,1.3H46.4c-0.4,4.1-0.6,8.7-0.6,13.6c0,4.8,0.2,9.3,0.6,13.4c2.6,0.1,5.6,0.2,7.2,0.3c1,0,1.9,0.1,2.9,0.1
				c25.1,1.1,36.7,0.7,48.7,9.3c19.8,14.2,18.8,31,41.5,31s21.7-16.7,41.5-31c12-8.6,23.7-8.2,48.7-9.3c0.9,0,1.9-0.1,2.9-0.1
				c1.7-0.1,4.7-0.2,7.2-0.3c0.4-4,0.6-8.6,0.6-13.4C247.6,499.3,247.3,494.6,247,490.5z"/>
			<path id="XMLID_300_" class="st5" d="M146.7,488.6c0.7,0,1.3,0.3,1.9,0.6c1.5,0.8,3.2,1.3,4.9,1.3h93.4c0.4,4.1,0.6,8.7,0.6,13.6
				c0,4.8-0.2,9.3-0.6,13.4c-2.6,0.1-5.6,0.2-7.2,0.3c-1,0-1.9,0.1-2.9,0.1c-25.1,1.1-36.7,0.7-48.7,9.3c-19.8,14.2-18.8,31-41.5,31
				s-21.7-16.7-41.5-31c-12-8.6-23.7-8.2-48.7-9.3c-0.9,0-1.9-0.1-2.9-0.1c-1.7-0.1-4.7-0.2-7.2-0.3c-0.4-4-0.6-8.6-0.6-13.4
				c0-4.9,0.2-9.5,0.6-13.6h93.6c1.7,0,3.4-0.4,4.9-1.3C145.4,489,146.1,488.6,146.7,488.6 M146.7,481c-1.9,0-3.8,0.5-5.7,1.6
				c-0.4,0.2-0.7,0.3-1.1,0.3H46.3h-7l-0.6,7c-0.4,4.5-0.6,9.3-0.6,14.3c0,4.9,0.2,9.6,0.6,14.1l0.6,6.8l6.8,0.3
				c1.1,0,2.2,0.1,3.3,0.1c1.5,0.1,2.9,0.1,3.9,0.1s2,0.1,2.9,0.1c2.5,0.1,4.9,0.2,7.2,0.3c19.5,0.8,28.4,1.2,37.4,7.6
				c6.7,4.8,10.7,9.9,14.5,14.8c6.7,8.6,13.7,17.6,31.5,17.6s24.7-8.9,31.5-17.6c3.8-4.9,7.8-10,14.5-14.8
				c8.9-6.4,17.8-6.8,37.4-7.6c2.3-0.1,4.7-0.2,7.2-0.3c1,0,1.9-0.1,2.9-0.1c0.9,0,2.4-0.1,3.9-0.1c1.1,0,2.2-0.1,3.3-0.1l6.8-0.3
				l0.6-6.8c0.4-4.4,0.6-9.1,0.6-14.1s-0.2-9.8-0.6-14.3l-0.6-7h-7h-93.4c-0.4,0-0.8-0.1-1.1-0.3C150.6,481.5,148.6,481,146.7,481
				L146.7,481z"/>
		</g>
		<path id="XMLID_298_" class="st6" d="M233.5,494.8h-32c-0.1-0.1-0.3-0.2-0.4-0.3c-0.3-0.2-2-0.6-2.8-1.1c0.6,0.9,1,5.1,0.9,6.6
			c-0.7-2-3.6-5.1-3.6-5.1H60.2c-3.6,0-6.5,2.9-6.5,6.5s2.9,6.5,6.5,6.5h173.4c3.6,0,6.5-2.9,6.5-6.5
			C240,497.6,237.1,494.8,233.5,494.8z"/>
		<path id="XMLID_297_" class="st6" d="M127,550.3c-0.4-0.4-0.7-0.8-1-1.1C126.3,549.5,126.6,549.8,127,550.3z"/>
		<path id="XMLID_296_" class="st6" d="M134.9,556c-0.7-0.3-1.3-0.6-1.9-1C133.6,555.3,134.2,555.7,134.9,556z"/>
		<path id="XMLID_295_" class="st6" d="M138,557c-0.3-0.1-0.7-0.2-1-0.3C137.3,557,137.7,557,138,557z"/>
		<path id="XMLID_294_" class="st6" d="M148.9,558.2c-0.7,0-1.4,0-2.1,0C147.6,558.2,148.2,558.2,148.9,558.2z"/>
		<path id="XMLID_293_" class="st6" d="M141,557.8c-0.7-0.1-1.3-0.2-1.9-0.4C139.8,557.5,140.4,557.7,141,557.8z"/>
		<path id="XMLID_292_" class="st6" d="M124.6,547.5c0-0.1-0.1-0.1-0.1-0.2C124.5,547.5,124.6,547.5,124.6,547.5z"/>
		<path id="XMLID_291_" class="st6" d="M45.9,502.5c0-0.2,0-0.3,0-0.5C45.9,502.3,45.9,502.4,45.9,502.5z"/>
		<path id="XMLID_290_" class="st6" d="M45.9,501c0-0.2,0-0.4,0-0.6C45.9,500.5,45.9,500.8,45.9,501z"/>
		<path id="XMLID_289_" class="st6" d="M46.3,515c0-0.4-0.1-0.8-0.1-1.3C46.2,514.2,46.2,514.5,46.3,515z"/>
		<path id="XMLID_288_" class="st6" d="M116.5,537.5C116.4,537.5,116.4,537.3,116.5,537.5C116.4,537.3,116.4,537.5,116.5,537.5z"/>
		<path id="XMLID_287_" class="st6" d="M46.4,516.3c0-0.2,0-0.3,0-0.5C46.3,516,46.3,516,46.4,516.3z"/>
		<path id="XMLID_286_" class="st6" d="M121.8,544c-0.3-0.3-0.5-0.6-0.8-1C121.3,543.5,121.6,543.8,121.8,544z"/>
		<path id="XMLID_285_" class="st6" d="M161.4,554.7c-0.6,0.4-1.2,0.7-1.9,1C160.1,555.3,160.8,555,161.4,554.7z"/>
		<path id="XMLID_284_" class="st6" d="M177.2,537.5c-0.5,0.6-1,1.2-1.5,1.8C176.2,538.7,176.7,538,177.2,537.5z"/>
		<path id="XMLID_283_" class="st6" d="M172.9,542.8c-0.3,0.3-0.5,0.7-0.8,1C172.4,543.5,172.6,543.2,172.9,542.8z"/>
		<path id="XMLID_282_" class="st6" d="M174.9,540.2c-0.3,0.4-0.6,0.7-0.8,1C174.4,540.8,174.6,540.5,174.9,540.2z"/>
		<path id="XMLID_281_" class="st6" d="M179,535.5c-0.6,0.6-1.2,1.3-1.7,1.9C177.9,536.7,178.4,536,179,535.5z"/>
		<path id="XMLID_280_" class="st6" d="M184.9,530c-0.8,0.7-1.6,1.4-2.3,2C183.3,531.3,184,530.5,184.9,530z"/>
		<path id="XMLID_279_" class="st6" d="M187.4,527.8c-0.6,0.4-1.2,0.9-1.7,1.3C186.2,528.8,186.8,528.3,187.4,527.8z"/>
		<path id="XMLID_278_" class="st6" d="M46,499c0-0.2,0-0.5,0-0.7C46,498.5,46,498.8,46,499z"/>
		<path id="XMLID_277_" class="st6" d="M158.1,556.3c-0.5,0.2-0.9,0.4-1.4,0.5C157.2,556.7,157.7,556.5,158.1,556.3z"/>
		<path id="XMLID_276_" class="st6" d="M171.9,544c-0.9,1.2-1.8,2.3-2.7,3.3C170.1,546.3,171,545.2,171.9,544z"/>
		<path id="XMLID_275_" class="st6" d="M159.5,555.7c-0.4,0.2-0.9,0.4-1.4,0.6C158.6,556,159,555.8,159.5,555.7z"/>
		<path id="XMLID_274_" class="st6" d="M168.6,548.2c-0.3,0.3-0.6,0.6-0.8,1C168.1,548.8,168.3,548.5,168.6,548.2z"/>
		<path id="XMLID_273_" class="st6" d="M162.5,553.8c-0.4,0.3-0.8,0.5-1.2,0.8C161.8,554.5,162.2,554.2,162.5,553.8z"/>
		<path id="XMLID_272_" class="st6" d="M46.4,491.9c0,0.4-0.1,0.9-0.1,1.3l0,0C46.3,492.6,46.3,492.3,46.4,491.9z"/>
		<path id="XMLID_271_" class="st6" d="M247.2,490.5c0,0.5,0.1,1.1,0.1,1.6C247.3,491.6,247.3,491.1,247.2,490.5z"/>
		<path id="XMLID_270_" class="st6" d="M247.4,492.4c0,0.5,0.1,1,0.1,1.5C247.4,493.4,247.4,492.9,247.4,492.4z"/>
		<path id="XMLID_269_" class="st6" d="M247.4,516c0,0.1,0,0.2,0,0.3C247.3,516,247.4,516,247.4,516z"/>
		<path id="XMLID_268_" class="st6" d="M46.2,493.8c0-0.1,0-0.1,0-0.2c-0.1,0.8-0.1,1.7-0.1,2.5c0-0.7,0.1-1.4,0.1-2.1
			C46.2,493.9,46.2,493.9,46.2,493.8z"/>
		<path id="XMLID_267_" class="st6" d="M163.1,553.5c1.7-1.2,3.1-2.7,4.6-4.3C166.2,550.8,164.8,552.3,163.1,553.5z"/>
		<path id="XMLID_266_" class="st6" d="M46,497.5c0-0.3,0-0.5,0-0.8C46.1,497,46.1,497.1,46,497.5z"/>
		<path id="XMLID_265_" class="st6" d="M180.4,534c0.7-0.7,1.4-1.4,2.1-2C181.8,532.7,181.1,533.3,180.4,534z"/>
		<path id="XMLID_264_" class="st6" d="M247.5,514.2c0,0.2,0,0.4,0,0.6C247.5,514.5,247.5,514.3,247.5,514.2z"/>
		<path id="XMLID_263_" class="st6" d="M247.5,493.9c0.1,1.1,0.1,2.3,0.2,3.5C247.6,496.1,247.5,495,247.5,493.9z"/>
		<path id="XMLID_262_" class="st7" d="M247.4,514.8c0,0.4-0.1,0.8-0.1,1.2C247.4,515.5,247.4,515.2,247.4,514.8z"/>
		<path id="XMLID_261_" class="st7" d="M247.5,513.2c0,0.3,0,0.6-0.1,1C247.5,513.8,247.5,513.5,247.5,513.2z"/>
		<path id="XMLID_260_" class="st7" d="M167.8,549l-0.1,0.1C167.7,549.2,167.7,549.2,167.8,549z"/>
		<path id="XMLID_259_" class="st7" d="M179,535.5c0.4-0.5,0.9-0.9,1.4-1.4C179.9,534.5,179.5,535,179,535.5z"/>
		<path id="XMLID_258_" class="st7" d="M177.3,537.3c-0.1,0.1-0.1,0.1-0.2,0.2C177.2,537.5,177.3,537.3,177.3,537.3z"/>
		<path id="XMLID_257_" class="st7" d="M175.7,539.3c-0.3,0.3-0.5,0.6-0.8,0.9C175.2,539.8,175.4,539.5,175.7,539.3z"/>
		<path id="XMLID_256_" class="st7" d="M247.2,517.5c0-0.4,0.1-0.9,0.1-1.4C247.3,516.7,247.3,517,247.2,517.5z"/>
		<path id="XMLID_255_" class="st7" d="M174.1,541.3c-0.4,0.5-0.8,1-1.2,1.6C173.3,542.3,173.7,541.8,174.1,541.3z"/>
		<path id="XMLID_254_" class="st7" d="M108.8,530c3,2.5,5.4,5,7.6,7.4C114.3,535,111.8,532.3,108.8,530z"/>
		<path id="XMLID_253_" class="st7" d="M169.2,547.3c-0.2,0.3-0.4,0.5-0.6,0.7C168.8,547.8,169,547.7,169.2,547.3z"/>
		<path id="XMLID_252_" class="st7" d="M172.1,543.8c-0.1,0.1-0.1,0.2-0.2,0.3C172,544,172,543.8,172.1,543.8z"/>
		<path id="XMLID_251_" class="st7" d="M127,550.3c1.6,1.7,3.4,3.2,5.4,4.4C130.3,553.5,128.6,552,127,550.3z"/>
		<path id="XMLID_250_" class="st7" d="M46.3,515.8c0-0.3,0-0.5-0.1-0.8C46.3,515.3,46.3,515.5,46.3,515.8z"/>
		<path id="XMLID_249_" class="st7" d="M46.1,496.6c0-0.2,0-0.4,0-0.6C46.1,496.3,46.1,496.5,46.1,496.6z"/>
		<path id="XMLID_248_" class="st7" d="M46.3,493.1c0,0.1,0,0.3,0,0.4C46.3,493.4,46.3,493.3,46.3,493.1L46.3,493.1z"/>
		<path id="XMLID_247_" class="st7" d="M45.9,500.4c0-0.5,0-1,0-1.4C46,499.5,46,499.9,45.9,500.4z"/>
		<path id="XMLID_246_" class="st7" d="M46.5,517.5c0-0.4-0.1-0.9-0.1-1.3C46.4,516.7,46.4,517.2,46.5,517.5z"/>
		<path id="XMLID_245_" class="st7" d="M108.8,530c-0.5-0.5-1.1-0.9-1.7-1.4C107.7,529,108.3,529.5,108.8,530z"/>
		<path id="XMLID_244_" class="st7" d="M45.9,504.3L45.9,504.3c0,3.3,0.1,6.5,0.3,9.4l0,0v0.1C46,510.6,45.9,507.5,45.9,504.3
			C45.9,504.1,45.9,504.1,45.9,504.3z"/>
		<path id="XMLID_243_" class="st7" d="M45.9,502c0-0.4,0-0.7,0-1.1C45.9,501.3,45.9,501.6,45.9,502z"/>
		<path id="XMLID_242_" class="st7" d="M46,498.3c0-0.3,0-0.5,0-0.8C46,497.8,46,498,46,498.3z"/>
		<path id="XMLID_241_" class="st7" d="M45.9,504.1c0-0.5,0-1.1,0-1.6C45.9,503,45.9,503.6,45.9,504.1z"/>
		<path id="XMLID_240_" class="st7" d="M46.4,491.9c0-0.4,0.1-0.8,0.1-1.3C46.4,491,46.4,491.5,46.4,491.9z"/>
		<path id="XMLID_239_" class="st7" d="M125.9,549c-0.4-0.5-0.8-1-1.3-1.5C125.1,548,125.5,548.5,125.9,549z"/>
		<path id="XMLID_238_" class="st7" d="M247.5,493.9L247.5,493.9L247.5,493.9z"/>
		<path id="XMLID_237_" class="st7" d="M137,556.8c-0.7-0.2-1.5-0.5-2.1-0.8C135.6,556.3,136.3,556.5,137,556.8z"/>
		<path id="XMLID_236_" class="st7" d="M139.2,557.5c-0.4-0.1-0.8-0.2-1.2-0.3C138.4,557.3,138.8,557.3,139.2,557.5z"/>
		<path id="XMLID_235_" class="st7" d="M124.5,547.5c-0.9-1.1-1.8-2.2-2.7-3.3C122.7,545.3,123.6,546.3,124.5,547.5z"/>
		<path id="XMLID_234_" class="st7" d="M247.3,492.1c0,0.1,0,0.1,0,0.2C247.3,492.4,247.3,492.3,247.3,492.1z"/>
		<path id="XMLID_233_" class="st7" d="M121.1,543.2c-1.4-1.8-2.9-3.7-4.6-5.7C118.2,539.3,119.7,541.3,121.1,543.2z"/>
		<path id="XMLID_232_" class="st7" d="M247.6,497.4L247.6,497.4L247.6,497.4z"/>
		<path id="XMLID_231_" class="st6" d="M247.6,511.9c0,0.4,0,0.9-0.1,1.3C247.6,512.8,247.6,512.3,247.6,511.9z"/>
		<path id="XMLID_230_" class="st6" d="M247.6,511.8c0-0.4,0-0.8,0.1-1.3C247.6,511,247.6,511.4,247.6,511.8z"/>
	</g>
	<path id="XMLID_228_" class="st6" d="M122.6,542.8c6.4,8.2,10.9,14,24.3,14c13.3,0,17.9-5.9,24.3-14c1.1-1.4,2.2-2.9,3.5-4.4
		c2.4-2.9,0.3-7.2-3.4-7.2h-48.7c-3.7,0-5.7,4.3-3.4,7.2C120.3,539.8,121.5,541.3,122.6,542.8z"/>
	<path id="XMLID_227_" class="st6" d="M149.2,507c-11.5,0-19.5,7.2-19.5,25.4c0,10.8,8.7,19.5,19.5,19.5s19.5-8.7,19.5-19.5
		C168.7,514.3,160.7,507,149.2,507z"/>
	<path id="XMLID_226_" class="st5" d="M146.8,506.3c-11.5,0-19.5,7.2-19.5,25.4c0,10.8,8.7,19.5,19.5,19.5s19.5-8.7,19.5-19.5
		C166.3,513.5,158.4,506.3,146.8,506.3z"/>
	<circle id="XMLID_225_" class="st5" cx="146.8" cy="531.8" r="19.5"/>
	<path id="XMLID_223_" class="st8" d="M161.4,527.5c0,8-6.5,14.6-14.6,14.6c-8,0-14.6-6.5-14.6-14.6c0-0.2,0-0.4,0-0.5
		c-0.5,1.5-0.8,3.2-0.8,4.9c0,8.5,6.9,15.4,15.4,15.4s15.4-6.9,15.4-15.4c0-1.7-0.3-3.3-0.8-4.9C161.4,527,161.4,527.3,161.4,527.5z
		"/>
	<path id="XMLID_222_" class="st3" d="M140.5,529.3l-1.7-5c-0.3-1-0.1-2.1,0.6-2.9l3.5-4c0.7-0.8,1.8-1.2,2.8-1l5.2,1
		c1,0.2,1.9,0.9,2.3,2l1.7,5c0.3,1,0.1,2.1-0.6,2.9l-3.5,4c-0.7,0.8-1.8,1.2-2.8,1l-5.2-1C141.7,531.2,140.9,530.3,140.5,529.3z"/>
	<circle id="XMLID_221_" class="st5" cx="146.8" cy="523.5" r="4.3"/>
	<g id="XMLID_200_">
		<path id="XMLID_219_" class="st9" d="M-18.9,390c-0.3,1.7-0.6,3.3-1.2,5.1c-0.9,3.2-1.5,4.7-3.7,8.4l-2.7-1.3l-3.6-1.4l-3.6-1.3
			l0.1-1.5c2.5-1.2,3.5-1.9,4.9-3.3c2.1-2,3.2-4.1,3.6-6.9c0.7-4.6-1.1-7.8-4.6-8.3c-1.7-0.2-3.4,0.2-4.5,1.3
			c-1.2,1.1-1.9,2-4.8,6.3c-3.3,5-4.8,6.9-7.1,8.7c-2.7,2.1-6,2.9-9.7,2.4c-9.8-1.4-15.3-10.6-13.5-22.6c0.2-1.3,0.4-2.6,0.8-3.8
			c0.9-3,1.6-4.7,3.9-8.5l2.9,1.7l3.5,1.6l2.5,1.1v1.3c-2.5,1.3-3.6,2-4.7,3.3c-1.3,1.4-2.1,3.4-2.4,5.3c-0.6,3.9,1.1,6.6,4.1,7
			c1.7,0.2,3.4-0.4,4.7-1.7c1.2-1.2,2.4-2.7,4.7-6.3c3.3-5.2,4.6-6.8,6.9-8.5c2.7-1.9,6-2.7,9.5-2.2C-22.9,367.4-17,377.5-18.9,390z
			"/>
		<path id="XMLID_217_" class="st9" d="M6.6,315.5l-1.9,3.7l-3.8,8.5l-2,4.7h-1.3c-2.6,0-3,0-5.1,0c-2.8,0.1-5.2,0.2-7,0.3
			c-4.2,0.2-6.3,0.3-11.9,0.7l0.7,2.1l0.8,2.3l5.1,2.4c5.8,2.7,9.5,4,12.6,4.4l-1.9,3.6l-3.9,8.2l-1.4,3.4c-1.2-0.8-2.1-1.4-2.7-1.7
			c-0.9-0.6-2.4-1.5-4.4-2.5s-3.6-1.8-4.6-2.3l-19.8-9.7c-3.1-1.5-5.4-2.3-6.8-2.6c-1.6-0.4-2.6,0.3-3.5,2.4l-0.2,0.5l-2.9-3
			l1.8-3.7l4.3-9l1.7-3.9c5.4,3.1,7.6,4.2,10.2,5.5l7.9,3.7l-4-11.5c-0.4-1.1-1.1-2.9-2.3-5.3c-0.6-1.4-1.2-2.7-1.8-3.7
			c-0.8-1.4-1.5-2.1-3.1-3.2l1.8-3.6l3.2-6.9l1.4-3.2l1.2,0.5c0.2,1.3,0.3,2.2,0.4,2.8c0.6,3.5,0.9,4.3,3.2,10.9l3.5,9.8l1.1-0.1
			c1.7-0.3,4.6-0.5,8.9-1c7.1-0.7,11.7-1.2,15.7-1.8c2.6-0.3,4.9-0.7,6.6-1.1c1.4-0.3,2-0.6,3.8-1.2L6.6,315.5z"/>
		<path id="XMLID_215_" class="st9" d="M41.4,280.5l-6.5,6.7l-3.6,3.9c-2.9-2.7-4.2-3.5-8-5.5l-4.8-2.4l-3.9,3.8l-4.4,4.6l-3.7,4.1
			l2.6,4.9c1,1.8,2.4,3.6,3.6,4.8c0.9,0.9,1.5,1.3,2.9,2l-1.8,1.7l-4.9,5l-2.5,2.8l-0.8-0.3c-0.4-1.4-0.7-2.4-0.9-3.1
			c-0.3-1-0.8-2.4-1.6-4.2c-0.8-1.9-1.3-3.5-1.7-4.5l-12.3-28c-1.9-4.2-2.4-5.3-4.3-8.3l2.6-2.9l5.3-6.5l2.6-3.6
			c2.6,1.7,3.6,2.2,6.6,3.6L31.5,273c3.8,1.7,9.3,3.8,12.8,4.7L41.4,280.5z M-6.2,270.4l9.7,19.3l3-2.9l2.9-3l3.4-3.7L-6.2,270.4z"
			/>
		<path id="XMLID_213_" class="st9" d="M63.1,214.9l1.1,4.3l0.8,2.4l-1.3,0.9c-1.9-1-2.9-1.1-4.5-0.8c-1.9,0.3-4.3,1.2-6.4,2.4
			c-0.6,0.3-1.5,0.8-2.7,1.6l2.6,5.2l11.5,21.2c3.1,5.6,5.3,8.8,7.6,11l-3.6,1.8l-7.9,4.3l-3.2,1.9c-0.5-1.3-0.9-2.3-1.1-3
			c-0.4-1-1.2-2.6-2.2-4.6s-1.9-3.5-2.4-4.5l-10.5-19.4l-2.5-4.2L37,233l-0.4,0.2c-3.1,1.7-4.5,2.5-6.1,3.8
			c-0.9,0.7-1.7,1.5-2.3,2.1c-1.3,1.5-1.9,2.5-2.9,5l-1.6,0.1l-0.8-2.7l-1.1-3.5l-1-3c7.8-3.9,10.6-5.4,20.5-10.8
			c10.5-5.7,13.3-7.3,21.2-11.9L63.1,214.9z"/>
		<path id="XMLID_211_" class="st9" d="M123.8,240.6l0.2,3.8l0.3,2.7l-2.8,0.4l-11.1,2.6l-11.6,2.6l-8.9,2.2
			c-0.1-1.4-0.2-2.5-0.3-3.2c-0.1-1.1-0.4-2.8-0.8-5s-0.8-3.9-1.1-5l-4.9-21.6c-0.8-3.3-1.5-5.7-2.2-7c-0.7-1.5-1.8-1.8-4.1-1.3
			l-0.6,0.1l0.6-4.2l9.5-2.1l9.8-2.3c7.5-1.8,11.8-2.8,12.9-3.1c0.8-0.2,2-0.5,3.5-0.9l-0.2,2.9l-0.1,4.4l0.1,2.5l-1.4,0.5
			c-1.6-1.4-2.4-1.9-4-2c-2-0.2-4.4,0-7.1,0.7c-0.9,0.2-2.3,0.6-4.1,1.1l1.3,6.5l1.3,6.1l3-0.7l1.3-0.3l3.6-0.8
			c3-0.7,4.1-1.1,7.4-2.2l0.3,1.7l0.6,3.1l0.8,2.3c-4.7,0.8-6.9,1.2-10,1.9c-1.8,0.4-2.9,0.7-5.5,1.4l1.8,7.5
			c0.2,0.8,0.5,1.9,0.9,3.2c0.7,2.5,1.3,3.5,2.3,4.1c1.4,0.9,3.5,0.9,7.4,0c1.8-0.4,3.5-1,5-1.7c2.5-1.2,3.8-2.3,5.4-4.9h1.7
			L123.8,240.6z"/>
		<path id="XMLID_209_" class="st9" d="M175.1,241.9c-1.2,1.2-2.8,2.3-4.5,3.1c-3.5,1.7-6.4,2-12.3,1.7l-1.1-0.1l-7.9-0.5l-8.9-0.4
			l-6.4-0.2c0.3-1.4,0.5-2.4,0.6-3.1c0.2-1,0.4-2.8,0.6-5c0.2-2.2,0.3-4,0.3-5.1l1.2-22.1c0.2-3.4,0.1-5.9-0.2-7.3
			c-0.3-1.6-1.3-2.2-3.6-2.3h-0.6l1.7-3.9l8.4,0.5l10.8,0.5l9.8,0.3c5.1,0.2,7.8,0.9,10.1,2.6c2.4,1.9,3.6,4.7,3.5,8.1
			c-0.1,1.8-0.6,3.7-1.5,5.1c-0.6,1-1.5,1.9-2.7,2.7c-1.8,1.3-3.1,1.9-6.6,3.1v0.6c1.1,0,2.1,0,3,0.1c7,0.3,11,4.7,10.7,11.7
			C179.3,235.6,177.7,239.3,175.1,241.9z M156.7,222.8c-1.3-0.1-2.2,0-4.6,0.2l0.7-2.7l0.6-2.6c0.8,0.1,1.5,0.1,2,0.2
			c3.9,0.2,6.2-2.5,6.4-7.4c0.2-4.6-2.2-7.3-6.8-7.5c-0.6,0-1.9,0-3.4,0l-0.5,6l-1.1,24.1c-0.2,3.6,0,5.2,0.9,6.4
			c0.7,1,2.5,1.7,4.6,1.8c5.5,0.3,8.7-3.1,9-9.5C164.8,225.8,162.4,223.1,156.7,222.8z"/>
		<path id="XMLID_207_" class="st9" d="M208,258.8c-15.8-6.1-22-19.1-16.3-33.8c5.8-14.8,20.9-20.7,36.8-14.5
			c5.6,2.2,10.7,5.5,13.6,9c5.4,6.2,6.7,15.9,3.2,24.9C239.4,259.5,224.6,265.3,208,258.8z M225.8,216.1
			c-7.9-3.1-14.1,1.4-18.9,13.6c-4.8,12.3-3.2,20.8,4.4,23.8c7.6,3,14-1.8,18.6-13.7C234.7,227.6,233.3,219.1,225.8,216.1z"/>
		<path id="XMLID_205_" class="st9" d="M274.6,302.6l-7-6.1l-4.1-3.4c2.6-3.1,3.3-4.4,5.1-8.2l2.2-4.9l-4-3.7l-4.8-4.2l-4.2-3.5
			l-4.7,2.9c-1.8,1-3.5,2.5-4.6,3.8c-0.8,1-1.2,1.5-1.9,3l-1.8-1.7l-5.3-4.6l-2.9-2.4l0.3-0.8c1.4-0.5,2.4-0.8,3-1.1
			c1-0.4,2.4-0.9,4.1-1.8c1.9-0.9,3.4-1.5,4.4-1.9l27.3-13.7c4.1-2.1,5.1-2.7,8.1-4.7l3,2.4l6.7,5l3.7,2.4c-1.6,2.7-2.1,3.7-3.3,6.7
			l-12.3,30.4c-1.6,3.9-3.3,9.5-4.1,13L274.6,302.6z M282.5,254.6l-18.8,10.6l3.1,2.9l3.1,2.7l3.8,3.2L282.5,254.6z"/>
		<path id="XMLID_203_" class="st9" d="M305.3,352.6l-1.9-3.6l-4.9-8l-2.7-4.3l0.8-1.1c1.5-2.1,1.7-2.5,2.8-4.2
			c3.7-5.6,5.8-9,7.3-11.6c2-3.3,2.1-4.1,1.2-5.6l-0.3-0.5l2.6-0.8l2.7-1c0.5,1.1,0.9,1.9,1.2,2.5c2.3,3.9,6.3,4.7,10.7,2.1
			c4.8-2.8,5.7-6.8,2.8-11.9c-0.5-0.9-1-1.6-2.1-3c-1.1,0.5-1.8,1-2.3,1.2c-1.3,0.7-2.2,1.2-2.7,1.5l-20.9,12
			c-5.5,3.2-8.6,5.5-10.8,7.9l-1.9-3.6l-4.5-7.8l-2-3.1c1.3-0.5,2.3-0.9,3-1.2c1-0.4,2.6-1.2,4.6-2.2c2-1.1,3.5-1.9,4.5-2.5l19.2-11
			c3-1.7,5-3.1,6-4.2c1.2-1.1,1.2-2.3,0-4.3l-0.3-0.5l4.2-0.7l2,3.6l8.9,15.3l4.4,7.2l0.3,0.6c2.8,4.9,3.6,7.6,3,10.9
			c-0.5,2.9-2.3,5.2-5.6,7.1c-5.3,3.1-10.2,2.2-15.3-2.6l-1.8,3.2c-3.6,6.5-5.7,10.3-7.5,13.9c-1.2,2.4-2.1,4.4-2.8,6.1
			c-0.5,1.3-0.7,2-1.2,3.8L305.3,352.6z"/>
		<path id="XMLID_201_" class="st9" d="M327.2,401.5c-4.4-1.9-8.5-5.5-11.1-9.7c-2.3-3.6-3.9-8.3-5-14.7c-0.1-0.4-0.1-0.7-0.1-1.1
			l-1.6-9.8l-1.3-6.1l-0.6-2.8c1.4,0,2.5,0,3.2-0.1c1.1,0,2.8-0.3,5-0.6c2.2-0.3,4-0.6,5.1-0.8l21.8-3.8c3.4-0.6,5.8-1.3,7.1-1.9
			c1.5-0.6,1.9-1.7,1.5-3.9l-0.1-0.6l4.1,0.7l0.4,2.4l1.3,7.3c1.2,6.6,2.1,11.1,2.6,13.6c0.5,2.6,0.9,5.1,1.3,7.5
			c1.1,7.1,0.9,10.7-0.8,14.6c-2.6,6-8.2,9.9-16.2,11.3C338,404,331.9,403.5,327.2,401.5z M351,381.6c2.7-3,3.3-6.5,2.2-12.5
			c-0.3-1.9-0.5-2.4-1.1-4l-6,0.9l-20.3,3.5c-0.9,0.2-2,0.4-3.3,0.7c-2.5,0.6-3.5,1.1-4.3,2.1c-0.9,1.3-1,2.9-0.6,5.6
			c1.5,8.5,8.5,12.1,20,10C344.1,386.8,348.3,384.9,351,381.6z"/>
	</g>
	<g id="XMLID_179_">
		<circle id="XMLID_181_" class="st5" cx="119.1" cy="566.5" r="5.2"/>
		<circle id="XMLID_180_" class="st5" cx="174.5" cy="566.5" r="5.2"/>
	</g>
	<g id="XMLID_176_">
		<circle id="XMLID_178_" class="st5" cx="119.1" cy="484" r="5.2"/>
		<circle id="XMLID_177_" class="st5" cx="174.5" cy="484" r="5.2"/>
	</g>
	<g>
		<path class="st5" d="M192.9,375.5c-5.5,0-11,0-16.6,0c0.1-0.8-0.2-1.6,0.3-2.4c0,0,0-0.1,0-0.1c0.1-1.7,0-3.4,0.3-5.1
			c0.4-2.8,0.1-5.7,0.2-8.5c0.1-2.9,0-5.8,0-8.6c0-2.8,0-5.7,0-8.5c0-2.9,0-5.8,0-8.6c0-1.3-0.2-2.6-0.5-3.9
			c-0.2-0.8-0.6-1.8-1.8-1.7c-0.6-0.4-1.3-0.2-2-0.3c-0.2-1,0.1-1.9,0.4-2.8c0.2-0.4,0.3-0.8,0.5-1.2c0.1-0.2,0.2-0.3,0.3-0.5
			c2.1,0,4.2,0,6.3,0c1,0,2.1,0,3.1,0c0.5,0,1-0.1,1.5,0.2c0.2,0.1,0.7,0.1,0.9,0c0.7-0.3,1.4-0.2,2.1-0.2c0.1,0.1,0.2,0.3,0.3,0.5
			c0.4,0,0.7,0,1.1,0c0.1-0.1,0.2-0.2,0.4-0.4c0.3,0,0.7,0,1,0c4.6,0,9.2,0,13.8,0c1.7,0,3.4,0.4,5.1,0.3c0.3,0,0.6,0.2,1.1,0.3
			c0.2,0.3,0.6,0.6,0.9,1.1c0.3,0.6,1,0.7,1.6,0.8c0.4,0.1,0.9,0,1.3,0c0.9,0.9,1.7,1.7,2.4,2.8c0.5,0.8,0.7,1.7,1.1,2.6
			c0.4,1,0.5,2,0.5,3c0,0.9,0,1.8,0,2.8c-0.1,1.9-0.4,3.7-1.4,5.3c-0.7,1.2-1.5,2.2-2.6,3.1c-1.2,1-2.5,1.7-3.9,2.3
			c-0.5,0.2-1.1,0.2-1.5,0.9c0.1,0.3,0.2,0.6,0.4,1c0.9,1.7,1.8,3.3,2.7,5c0.5,1,1.1,2,1.6,2.9c1,1.8,2,3.6,3.1,5.3
			c0.8,1.3,1.6,2.7,2.4,4c0.1,0.3,0.4,0.5,0.5,0.8c0.2,0.4,0.3,0.8,0.4,1.1c-0.3,0.4-0.6,0.7-0.9,1.1c0.7,0.2,1.4,0,2,0.1
			c0.7,1.1,1.6,2.1,2.2,3.3c0.3,0.6,1.1,0.5,1.2,1.4c0,0,0,0.2,0,0.6c-0.2,0.1-0.5,0.2-0.8,0.4c-0.3-0.3-0.5-0.6-0.7-0.8
			c-0.7-0.1-1,0.4-1.2,0.9c-0.3,0-0.6,0-0.9,0c-0.8-0.4-0.6-1.4-1.2-2c0.8-0.6,1,0.6,1.7,0.2c0.3-0.4,0.6-0.8,0.5-1.5
			c-0.6-0.2-0.9-0.7-1.4-1.1c-0.8,0.4-1,1.1-1,2c-0.4-0.2-0.6-0.3-1-0.5c0.1-0.4,0.1-0.9,0.2-1.5c-0.1-0.1-0.3-0.5-0.5-0.9
			c-0.4,0.8-0.7,1.5-0.6,2.3c0,0.4,0.1,0.8,0.3,1.1c0.3,0.5,0.2,1.1,0.2,1.7c-0.3,0-0.6,0-0.9,0c-1.8-0.1-3.5,0.4-5.3,0.3
			c-1.8-0.1-3.6,0-5.5,0c-0.4-0.7-0.9-1.5-1.2-2.3c-0.2-0.4-0.3-0.8-0.5-1.2c-1.1-2.5-2.3-5-3.4-7.5c-1.5-3.3-3.2-6.6-4.9-9.9
			c-0.4-0.7-0.9-1.3-1.5-1.9c-0.3-0.1-0.5-0.2-0.8-0.3c-0.3-0.1-0.6,0-0.8,0c-0.2-0.2-0.4-0.4-0.6-0.6c0.1-0.5,0.1-1.2,0.3-1.7
			c0.2-0.4,0.1-0.8,0.2-1.1c0.1-0.3,0.2-0.7,0.2-1c0-0.8,0.3-1.3,0.9-1.8c0.7,0,1.4,0,2.1,0.2c0.6,0.1,1.3-0.2,2-0.3
			c0.4-0.1,0.9-0.2,1.3-0.4c1.8-0.8,2.8-2.1,3.3-3.9c0.3-1,0.5-2,0.5-3c0-0.6-0.1-1.3,0-1.9c0.1-1.1-0.2-2.2-0.6-3.2
			c-0.5-1.6-1.7-2.8-3.2-3.5c-0.6-0.3-1.3-0.5-2-0.6c-1-0.2-2-0.3-3-0.3c-0.9,0-1.7,0.3-2.6,0.5c-0.2,0.4-0.4,0.7-0.4,1.2
			c0.2,6.7-0.4,13.4-0.2,20.1c0.1,3.9,0.1,7.8,0,11.8c0,2.1,0.4,4.1,0.3,6.1c0.4,1.6,0.3,3.3,0.9,4.9
			C193,374.4,192.9,375,192.9,375.5z M185.5,327.9c0-0.3,0-0.6,0-1c0.6-0.7,1.8-0.9,1.3-2.1c-0.1-0.2-0.3-0.5-0.4-0.6
			c-0.5,0-0.9,0-1.3,0c-0.3,0.3-0.5,0.5-0.8,0.8c0,0.3,0,0.7,0,0.9c-0.4,0.3-0.8,0.5-1.2,0.7c0.1,0.4,0.2,0.7,0.3,0.8
			c0.4,0.4,0.6,0.7,0.9,1c0,0,0.1-0.1,0.1-0.1c0.5,0.3,1,0.6,1.6,0.9c0-0.4,0-0.7,0-0.9C185.8,328.2,185.6,328,185.5,327.9z
			 M188.2,329c0.4-0.3,0.8-0.5,1.2-0.8c0.5,0.3,0.9,0.5,1.4,0.8c0.6-0.3,1.4-0.2,1.7-1.1c-0.2-0.1-0.4-0.2-0.6-0.3
			c-0.1,0.1-0.2,0.2-0.3,0.2c-1.1-0.2-2.2,0.3-3.4,0.3c-0.2,0-0.4,0.1-0.5,0.1c-0.1,0-0.1,0.1-0.2,0.3
			C187.7,328.6,187.9,328.8,188.2,329z"/>
		<path class="st5" d="M111.9,328c-0.1-0.1-0.2-0.2-0.3-0.3c-0.2-0.9,0.4-1.7,0.5-2.5c0.1-0.4,0.4-0.7,0.4-1c0-0.7,0.6-0.7,1-0.9
			c0.1-0.1,0.3,0,0.5,0c5.6,0,11.1,0,16.7,0c0.2,0.2,0.3,0.3,0.6,0.6c-0.1,0.4,0.1,0.8-0.2,1.3c-0.2,0.4,0,1,0,1.5
			c-0.1,2-0.4,4-0.2,6c-0.5,1.5-0.2,3.1-0.2,4.6c0,6.5,0,13,0,19.6c0,1.1,0.2,2.1,0.3,3.1c0.1,0.9,0.3,1.9,0.6,2.8
			c0.2,0.7,0.4,1.4,0.7,2.1c0.6,1.3,1.5,2.2,2.6,3c0.9,0.6,2,0.9,3,1.2c0.4,0.1,0.8,0.2,1.2,0.2c0.4,0,0.8,0,1.2,0
			c2.2-0.1,4.2-0.7,6-2c0.8-0.6,1.5-1.4,2-2.3c0.2-0.3,0.3-0.7,0.5-1.1c0.2-0.3,0.4-0.7,0.5-1c0.1-0.4,0.2-0.8,0.3-1.2
			c0.3-1.4,0.4-2.8,0.5-4.2c0.4-3.7,0.2-7.5,0.2-11.2c0-3.7,0-7.4,0-11.2c0-1.1-0.4-2.2-0.2-3.3c-0.3-0.5-0.2-1-0.2-1.6
			c0-0.5-0.4-1-0.2-1.6c-0.4-1.4-0.4-3-1.1-4.3c-0.2-0.4-0.2-0.8,0.3-1.2c0.7,0.1,1.5,0.2,2.3,0.3c1.4,0,2.9,0,4.3,0
			c0.5,0,1-0.1,1.5,0.2c0.4,0.3,1-0.1,1.5,0.2c0.2,0.1,0.6,0.1,0.9-0.1c0.4-0.3,0.9-0.4,1.4-0.7c0.1,0.3,0.3,0.6,0.4,0.8
			c0.1-0.1,0.1-0.1,0.2-0.2c0,1,0,1.9,0,2.9c-0.4,0.4-0.3,0.9-0.2,1.3c0.1,1.1-0.4,2.2-0.3,3.3c0.1,1.1,0.2,2.2,0,3.2
			c-0.4,2.2-0.2,4.3-0.2,6.5c0,6.7,0,13.4,0,20.2c0,1.5-0.3,2.9-0.8,4.2c-0.8,2.2-2,4.2-3.7,5.9c-1.5,1.5-3.2,2.7-5.1,3.6
			c-1.5,0.7-3,1.3-4.6,1.6c-0.9,0.2-1.8,0.4-2.7,0.5c-0.7,0.1-1.4,0.1-2.1,0.2c-1.4,0.4-2.9,0.2-4.3,0.2c-1.3,0-2.6-0.2-3.9-0.3
			c-1.1-0.1-2.2-0.1-3.3-0.5c-0.7-0.2-1.3-0.2-2-0.4c-0.6-0.2-1.2-0.5-1.8-0.7c-1.7-0.4-3.1-1.3-4.4-2.3c-2-1.6-3.5-3.5-4.5-5.9
			c-0.4-0.9-0.5-1.9-0.8-2.8c-0.4-1.5-0.5-3.1-0.5-4.7c0-8.4,0-16.7,0-25.1c0-1.1-0.3-2.2-0.3-3.4c0-0.6-0.4-1.3-0.5-2
			c-0.1-0.8-0.9-1.3-1.9-1.4C112.9,328,112.4,328,111.9,328z M154.8,341.2c-0.2-0.4-0.3-0.8-0.8-0.7c0,0.2,0,0.4,0,0.7
			C154.3,341.2,154.5,341.2,154.8,341.2z"/>
		<path class="st5" d="M70.1,397.1c-0.1-0.1-0.2-0.2-0.3-0.3c0-0.3,0-0.7,0-1c0.2-0.3,0.3-0.5,0.4-0.8c0.2-0.6,0.4-1.2,0.5-1.9
			c0.1-0.1,0.3-0.3,0.6-0.5c1.5,0,3.1,0,4.6,0c0.3,0,0.7,0.1,1,0.2c0.2-0.1,0.5-0.2,0.8-0.2c3.8,0,7.7,0,11.5,0
			c0.1,0.2,0.2,0.4,0.4,0.7c0,0.7,0,1.5,0,2.3c0.1,1.8,0.4,3.5,0.9,5.3c0.2,0.9,0.5,1.7,0.7,2.6c0.2,0.8,0.3,1.7,0.6,2.5
			c0.6,1.9,0.9,4,1.6,5.9c0.3,1,0.5,2.1,0.8,3.2c0.3,1.2,0.6,2.4,0.9,3.6c0.3,1,0.5,2.1,0.8,3.2c0.3,1.4,0.7,2.7,1.1,4.1
			c0.3,1.1,0.6,2.2,0.9,3.4c0.3,1.4,0.8,2.8,1,4.3c0.1,0.5,0.3,1.1,0.5,1.7c-0.5,0-0.8,0-1.2,0.1c-0.7-0.7-1.4-1.4-2.3-1.8
			c-0.7,1-1.7,1.3-2.6,1.8c0,0.3,0,0.6,0,0.9c0.6,0.5,1.2,0.9,1.9,1.4c0.4-0.3,0.6-0.6,0.9-0.9c1.3-0.7,2.7,0.1,4.1,0
			c0-0.1,0.1-0.3,0.2-0.4c0.3,0,0.7,0,1,0c0.6-0.7,0.4-1.4,0.4-2.1c-0.5-0.2-0.6,0.1-0.7,0.4c-0.2,0.5-0.5,0.9-0.6,1.3
			c-0.1,0.1-0.2,0.2-0.2,0.2c-0.2-0.2-0.4-0.4-0.7-0.6c0.3-0.3,0.5-0.6,0.8-0.8c0.2-0.2,0.5-0.4,0.8-0.6c-0.4-0.3-0.8-0.6-1.1-0.9
			c-0.1-1,0.4-1.7,0.7-2.3c0.3-0.9,0.6-1.8,0.9-2.8c0.3-0.9,0.6-1.8,0.8-2.8c0.2-0.9,0.6-1.7,0.9-2.6c0.5-1.8,1.2-3.6,1.7-5.4
			c0.6-2.1,1.3-4.2,1.9-6.3c0.6-1.8,1.2-3.6,1.7-5.4c0.2-0.8,0.5-1.6,0.8-2.4c0.1-0.4,0.3-0.8,0.4-1.3c0.1-0.7,0-1.5,0.3-2.2
			c0.3-0.8,0.1-1.5,0.2-2.3c0.1-0.8,0.1-1.5,0-2.3c-0.1-0.8-0.4-1.5-0.2-2.3c4.4,0,8.8,0,13.3,0c0.9,0.7,0.6,1.6,0.2,2.4
			c-0.2,0.6-0.6,1.1-0.8,1.7c-0.5,1-1,1.9-1.3,2.9c-0.3,1-0.9,1.9-1.1,2.9c-0.8,1.3-1.1,2.8-1.7,4.2c-0.5,1.2-0.9,2.4-1.4,3.6
			c-0.6,1.5-1.1,3.1-1.7,4.6c-0.6,1.4-1.1,2.8-1.6,4.1c-0.5,1.2-0.9,2.4-1.4,3.6c-0.5,1.5-1.2,3-1.7,4.5c-0.5,1.2-0.9,2.4-1.4,3.6
			c-0.4,1.1-0.9,2.2-1.3,3.3c-0.4,1.3-1,2.6-1.5,4c-0.3,1-0.7,2-0.9,3c-0.2,0.9-0.5,1.8-0.8,2.7c0,0.1-0.1,0.2-0.2,0.3
			c-0.2,1-0.2,1-0.9,1.7c-0.6,0-1.1,0.1-1.7,0c-2.4-0.5-4.8-0.1-7.3-0.3c-0.1-0.5-0.3-1-0.4-1.5c-0.5-0.3-1-0.6-1.3-0.8
			c-0.2-0.7-0.4-1.2-0.6-1.7c-0.9-0.2-1.6-0.1-2.1,0.6c-0.5,0.6-1.2,0.7-1.9,1.1c-0.1-0.1-0.2-0.2-0.3-0.3c-0.4-1-0.8-2.1-0.5-3.3
			c0.2,0,0.5,0,0.9,0c0.7,0.1,0.5,1.4,1.6,1.4c0.3-0.7,0.7-1.3,0.6-2.2c0.5-0.2,0.9-0.3,1.4-0.5c0.1-0.2,0.2-0.4,0.3-0.6
			c-0.4-1.1-1.4-1.2-2.3-1.3c-0.8-0.1-1.7,0-2.5,0c-0.6,0-1.1-0.1-1.4-0.4c-0.9-2.6-1.8-5-2.5-7.6c-0.4-1.4-0.9-2.8-1.3-4.1
			c-0.4-1.3-1-2.7-1.3-4c-0.4-1.4-0.9-2.8-1.3-4.1c-0.5-1.4-1-2.7-1.4-4.1c-0.3-1.1-0.7-2.2-1-3.3c-0.3-1.1-0.8-2.2-1-3.3
			c-0.3-1.4-0.9-2.7-1.4-4c-0.3-1-0.7-2-1.2-2.8c-0.5-0.9-1.4-1.2-2.4-1.3C70.8,397.1,70.5,397.1,70.1,397.1z M97.8,439.6
			c-0.4,0.1-0.7,0.2-0.7,0.7c0.2,0,0.5,0,0.7,0C97.9,440,97.8,439.8,97.8,439.6z"/>
		<path class="st5" d="M169.3,433.6c0.4,0.2,0.7,0.4,1,0.6c0.1,1.2,0,2.3-0.4,3.4c-0.2,0.6-0.2,1.4-0.3,2c-0.1,0.4-0.2,0.9-0.2,1.3
			c-0.1,0.4,0,0.8-0.2,1.2c-0.2,0.3-0.1,0.9,0,1.3c0,0.6-0.1,1.1-0.6,1.6c-0.8,0-1.7,0-2.6,0c-2.8,0-5.5,0.2-8.3,0
			c-5.3-0.4-10.6,0-15.9-0.2c-0.1-0.3-0.4-0.7-0.4-1.1c-0.1-0.6-0.3-1-0.7-1.4c-0.4-0.4-0.8-0.8-1.2-1.2c-0.1-0.2-0.2-0.4-0.4-0.6
			c-0.2,0-0.5,0-0.7,0c-0.4,1.2,0.5,2.1,0.4,3.3c-0.5,0-0.9,0-1.2,0c-0.4,0.5-0.8,0.9-1.1,1.2c-0.8,0-1.5,0-2.1,0
			c-0.1-0.1-0.2-0.2-0.3-0.3c-0.1-0.7,0-1.3,0.6-1.9c0.3,0.2,0.6,0.3,0.9,0.5c0.2-0.1,0.4-0.2,0.7-0.4c-0.3-0.2-0.5-0.3-0.7-0.4
			c-0.5,0.2-0.9,0.4-1.4-0.2c0.1-0.8-0.2-1.7,0.2-2.5c0,0,0-0.1,0-0.1c-0.2-1.7,0.3-3.3,0.2-4.9c0-7.2,0-14.5,0-21.7
			c0-1,0.4-2,0.3-3c-0.1-1,0-2.1,0-3.1c0-0.9-0.2-1.8-0.2-2.7c0-0.9,0.2-1.8,0-2.6c-0.3-1.1-0.2-2.3-0.8-3.4
			c-0.3-0.5-0.7-0.7-1.2-0.9c-0.4-0.1-0.7-0.2-1.1-0.2c-0.3,0-0.7,0-1.1,0c0-0.5,0-1.1,0-1.4c0.4-1.2,0.8-2.2,1.2-3.2
			c0.5,0,0.9,0,1.3,0c6.9,0,13.8,0,20.8,0c4.2-0.5,8.5-0.1,12.7-0.2c0.4,0,0.8,0,1.1,0c0.5,0.5,0.4,0.9,0.2,1.4
			c-0.5,1.3-0.8,2.6-1.1,4c-0.1,0.5-0.3,0.9-0.4,1.4c-0.1,0.6-0.2,1.2-0.3,1.8c0,1.1,0,1.1-0.8,1.9c-0.5,0.1-1,0.1-1.4-0.2
			c-0.3-0.2-0.5-0.6-0.7-0.9c-0.6-1.1-1.7-1.6-2.8-2c-1.3-0.4-2.6-0.6-3.9-0.8c-1.7-0.2-3.4-0.1-5.1-0.2c-0.4,0-0.9,0.1-1.2,0.2
			c-0.4,0.5-0.4,1-0.4,1.5c0.1,2.7-0.4,5.3-0.2,7.9c0,0.7,0,1.4,0,2.2c0,0.4,0.1,0.9,0.2,1.4c0.6,0.1,1.1,0.2,1.6,0.2
			c2.2,0,4.3,0,6.5,0c1.7,0,3.5-0.1,5.2-0.2c0.4,0,0.8-0.2,1.2-0.2c0.2,0,0.4,0.1,0.6,0.2c0,2.6,0,5.2,0,7.9c-1.4,0-2.7,0.2-4,0
			c-1.4-0.2-2.7-0.1-4.1-0.2c-1.4,0-2.7,0-4.1,0c-0.5,0-1,0-1.4,0c-0.4,0-0.9,0.1-1.3,0.2c-0.4,0.5-0.4,1.1-0.4,1.6
			c0,2.8,0.1,5.6,0,8.4c0,1.3,0.2,2.6,0.3,3.9c0,0.7,0.3,1.5,0.7,2.1c0.5,0.7,1.2,1.1,1.9,1.3c0.9,0.3,1.9,0.6,2.9,0.5
			c0.7,0,1.4,0.2,2.1,0.2c1.3,0.1,2.6-0.4,4-0.2c1.4-0.5,3-0.6,4.3-1.4c0.9-0.5,1.8-1.2,2.6-1.9c0.2-0.2,0.3-0.4,0.5-0.5
			C168.7,433.8,169,433.7,169.3,433.6z M138.4,439.3c0.3,0,0.6,0,0.9,0c0-0.2,0-0.4,0-0.6c-0.3,0-0.6,0-0.9,0
			C138.4,438.9,138.4,439.1,138.4,439.3z"/>
		<path class="st5" d="M101.2,324.5c0,0.4,0,0.7,0,0.8c-0.4,1-0.8,1.7-0.9,2.5c-0.4,1.9-1.2,3.6-1.5,5.5c-0.1,0.5-0.3,0.9-0.5,1.4
			c-0.4,0.1-0.8,0.2-1.2,0.4c-0.7-0.9-1.5-1.7-2-2.6c-0.5-0.9-1.3-1.5-2.2-2c-1.5-1-3.1-1.5-4.9-1.5c-0.9,0-1.7,0-2.5,0.2
			c-0.4,0.1-0.7,0.3-1,0.4c-0.4,0.2-0.8,0.3-1.5,0.5c-0.3,0.8-0.8,1.8-1.2,2.8c-0.5,1.5,0.1,2.7,0.7,4.1c0.3,0.7,1.5,1.8,2.2,2.3
			c1.3,1,2.8,1.6,4.2,2.4c2,1.1,4,2.1,6,3.1c1,0.6,2,1.2,2.9,2c0.6,0.5,1.3,1.1,1.8,1.7c1.4,1.5,2.4,3.2,3,5.1
			c0.2,0.7,0.4,1.4,0.5,2.2c0.1,0.7,0.2,1.5,0.2,2.2c0,0.4,0,0.8,0,1.2c0,2.4-0.6,4.6-1.7,6.8c-0.9,1.7-1.8,3.3-3.3,4.6
			c-0.2,0.2-0.3,0.3-0.5,0.5c-1.7,1.8-3.7,3.1-6,4.1c-1.2,0.5-2.4,0.9-3.6,1.2c-1.6,0.4-3.2,0.7-4.9,0.7c-0.4,0-0.7,0.2-1.1,0.2
			c-0.4,0-0.7,0-1.1,0c-1.2-0.1-2.5-0.2-3.7-0.3c-1.1-0.1-2.3-0.2-3.4-0.5c-1.2-0.3-2.4-0.7-3.6-1.1c-0.9-0.3-1.8-0.7-2.7-1.1
			c0-0.6,0-1.1,0.2-1.7c0.4-1.4,0.8-2.8,1-4.3c0.2-1.3,0.6-2.6,0.7-3.9c0-0.4,0.2-0.7,0.4-1.2c0.1-0.1,0.2-0.2,0.4-0.4
			c0.4,0,0.8,0,1.3,0c0.3,0.4,0.8,0.9,1.1,1.4c1,1.8,2.5,3,4.2,4.1c1.9,1.2,2.1,1,4.1,1.5c0.9,0.2,1.7,0.3,2.5,0.2
			c1.8-0.3,3.7-0.6,5-2.1c0.6-0.7,1-1.4,1.1-2.3c0.1-0.5,0.3-1,0.2-1.5c-0.1-2.5-1.2-4.4-3.4-5.7c-1.7-0.9-3.5-1.7-5.1-2.7
			c-2.2-1.3-4.5-2.3-6.5-3.7c-1.3-0.9-2.3-2-3.4-3c-0.9-0.8-1.5-1.8-1.9-2.9c-0.6-1.3-1-2.6-1.2-4.1c-0.2-1.1-0.1-2.2-0.2-3.3
			c-0.1-1.9,0.4-3.7,1-5.4c0.8-2.2,2-4.2,3.7-5.9c0.3-0.3,0.7-0.7,1-1c0.3-0.3,0.7-0.5,1-0.8c0.1-0.1,0.4-0.1,0.5-0.3
			c0.8-0.9,2-1.2,3-1.8c1-0.5,2-0.9,3.1-1.2c0.9-0.3,1.8-0.2,2.6-0.7c0,0,0.1,0,0.1,0c1-0.1,2.1-0.2,3.1-0.2c1,0,2.1-0.1,3.1,0
			c0.9,0.1,1.7,0.1,2.5,0.2c1.2,0.2,2.5,0.6,3.7,0.9c1.3,0.4,2.4,1.1,3.7,1.5C100.9,324,101,324.3,101.2,324.5z M76,325.8
			c0,1.2,0.1,2.3,0,3.4c-0.1,1.1,0.3,2.1,0.3,3.1c0,0.4,0.3,0.8,0.4,1.3c0.1,0.6,0.7,0.6,1,1c0.2,0.2,0.6,0.1,0.9,0.2
			c0.4-0.7,1.1-0.8,1.8-1.1c0.1-0.4,0.2-0.8,0.3-1.2c-0.8-0.7-1.3-1.5-2.2-1.9c0-0.3,0-0.6,0-0.8c0.4-0.1,0.8-0.2,1.1-0.4
			c0.1-0.3,0.2-0.5,0.4-0.8c-0.3-0.2-0.6-0.5-1-0.8c-0.1-0.6-0.5-1-1.1-1.2c-0.4-0.2-0.7-0.3-1.1-0.6
			C76.6,325.9,76.3,325.9,76,325.8z M93.9,326.3c-0.3-0.2-0.5-0.4-0.9-0.6c0,0.5,0.1,0.8,0.1,1.3C93.5,326.7,93.7,326.6,93.9,326.3z
			 M95.3,328c-0.1,1-0.1,1,0.7,0.8C95.8,328.6,95.7,328.4,95.3,328z"/>
		<path class="st5" d="M193.5,392.3c0.3,0.3,0.4,0.4,0.6,0.6c0.1,2.1,0.6,4.1,1.3,6.1c0.4,1.3,1.1,2.4,1.5,3.7
			c0.6,1.7,1.5,3.4,2.1,5.1c0.4,1.2,1.1,2.4,1.5,3.6c0.4,0.9,0.8,1.7,1.1,2.7c0.1,0.4,0.3,1.1,1.1,0.8c0.7-1.9,1.5-3.7,2.3-5.6
			c0.5-1.2,1-2.4,1.6-3.6c0.6-1.4,1.2-2.8,1.6-4.3c0.3-0.9,0.5-1.7,0.6-2.6c0.2-1,0.1-2,0.7-3.1c0.1-0.1,0.4-0.4,0.7-0.7
			c0.6,0.2,1.2,0.4,2,0.6c0,0,0.2,0.2,0.5,0.5c0,0.3,0,0.8,0,1.2c0.4,0.1,0.8,0.1,1.1-0.3c-0.1-0.2-0.3-0.5-0.4-0.7
			c-0.2-0.3-0.3-0.5-0.5-0.8c0.3-0.3,0.2-0.9,0.8-0.9c0.2,0.3,0.3,0.6,0.5,1c0.6,0,0.5-0.6,0.8-0.8c0-0.6,0-1.1,0-1.7
			c0.2-0.2,0.4-0.4,0.6-0.6c2.2,0,4.3,0,6.5,0c0.3,0,0.6,0,0.8,0.3c0.1,0.6,0,1.1-0.4,1.6c-0.7,1.2-1.5,2.3-2.3,3.5
			c-0.5,0.8-1,1.5-1.5,2.3c-0.5,0.7-0.8,1.5-1.3,2.2c-0.5,0.8-1.3,1.3-2.3,1.4c-0.2,0-0.3,0.1-0.5,0.2c0,0.3,0,0.6,0,0.9
			c0.2,0.2,0.4,0.4,0.6,0.6c0,0.4,0,0.8,0,1.1c-0.6,1.3-1.2,2.6-1.8,3.9c-0.7,1.4-1.4,2.9-2.1,4.3c-0.7,1.5-1.5,3-2.2,4.6
			c-0.6,1.4-1.3,2.8-1.9,4.3c-0.4,0.9-0.7,1.7-0.7,2.7c0,3.3,0,6.6,0,9.8c0,0.5-0.1,1.1,0.2,1.6c0.1,0.2,0.1,0.5-0.1,0.7
			c-0.4,0.5-0.1,0.9,0.1,1.3c0.1,0.3,0.3,0.5,0.2,0.9c-0.1,0.7,0.4,1.3,0.2,2.1c0.5,0.6,0.1,1.4,0.3,2.1c-5.5,0-10.9,0-16.3,0
			c-0.1-0.1-0.2-0.2-0.3-0.3c0.1-0.5-0.1-0.9,0.2-1.5c0.3-0.4-0.2-1,0.3-1.4c0,0,0-0.2,0-0.2c-0.2-1.7,0.3-3.3,0.3-4.9
			c-0.1-3.5,0-7,0-10.6c0-0.8-0.2-1.6-0.6-2.3c-0.5-1.1-1.1-2.2-1.7-3.4c-0.5-1-0.9-2.1-1.5-3.1c-1.9-3.4-3.6-6.8-5.3-10.3
			c-1.1-2.2-2.3-4.4-3.3-6.7c-0.5-1.1-1.2-1.9-1.9-2.6c-0.9-0.5-1.7-0.4-2.5-0.4c-0.1-0.1-0.2-0.2-0.3-0.3c0-0.3,0-0.7,0-0.8
			c0.4-1.2,0.8-2.3,1.2-3.4c0.8-0.5,1.8-0.3,2.8-0.2c0.2,0,0.5,0.1,0.8,0.1c3.6,0,7.3,0,10.9,0c0.5,0,1-0.4,1.6-0.3
			C192.5,392.4,193,392.3,193.5,392.3z"/>
		<path class="st5" d="M91.4,444.1c0,0.2,0,0.3,0,0.5c-0.4,0-0.9,0-1.2,0c-0.5,0.3-0.6,0.9-1.3,0.7c-0.6-0.6-0.3-1.4-0.4-2
			c0.7,0.1,1.4,0.1,2,0.2C90.8,443.7,91,443.9,91.4,444.1z"/>
		<path class="st5" d="M210.2,393.4c0,0.2,0,0.5,0,0.8c-0.2,0.1-0.4,0.2-0.7,0.4c0-0.5,0-0.8,0-1.1c0.4-0.4,0.7-0.8,1.2-1.4
			c0.2,0.2,0.4,0.4,0.6,0.7C210.9,393.1,210.5,393.2,210.2,393.4z"/>
	</g>
	<path class="st5" d="M253.9,513.7c-0.5,0.1-1.1-0.5-1.7,0c-0.1,0.1-0.1,0-0.2,0c-0.3,0-0.6,0-1,0c-0.2,0-0.4,0-0.6-0.1
		c-0.4-0.2-0.8,0-1.1,0c-0.6,0.1-1.2,0.1-1.8,0c-0.3-0.1-0.7-0.1-1-0.4c-0.1-0.1-0.2-0.1-0.3,0c-0.6,0.2-1.2,0.1-1.8,0
		c-0.8-0.2-1.6-0.1-2.3-0.2c-0.7-0.1-1.3,0-2-0.3c-0.5-0.2-0.9,0.1-1.4,0c-0.2,0-0.5-0.1-0.7-0.1c-0.2,0-0.4,0-0.7,0
		c-0.8,0.2-1.6,0.1-2.4,0c-0.9-0.1-1.7-0.2-2.6-0.3c-0.2,0-0.4,0-0.6,0c-1.2,0.1-2.4-0.2-3.6-0.3c-0.4,0-0.9-0.1-1.3-0.1
		c-0.7,0-1.3-0.1-2-0.2c-0.9-0.1-1.8-0.2-2.7-0.3c-0.6-0.1-2.7-0.2-3.3-0.3c-0.4,0-2.2-0.2-2.8-0.2c-0.1,0-3.8-0.2-3.8-0.2
		c-0.4,0-0.9-0.1-1.4-0.1c-0.1,0-0.3,0-0.4,0c-0.4,0-0.5,0-0.5,0c0.1,0,0.3,0,0.7,0c0.5,0,0.6,0,0.8,0c0.6,0,1.1-0.1,1.7-0.1
		c0.1,0,7.1-0.4,7.6-0.5c0.1,0,0.1,0,0.2,0c0.5,0,0.9-0.1,1.4-0.1c0.1,0,0.1,0,0.2-0.1c0.1,0,1.7,0,1.9-0.1c0.3-0.1,0.7-0.1,1-0.1
		c0.3,0,0.5-0.1,0.8-0.1c0.1,0,0.1,0,0.2,0c0.7,0.1,1.3-0.1,2-0.2c0.4-0.1,0.8,0,1.2,0c0.2,0,0.4-0.1,0.6-0.1l0.9-0.1
		c0.1,0,0.3-0.1,0.4-0.1c0.2,0,0.3-0.1,0.5,0c0.4,0.1,0.7,0,1.1,0c0.5,0,0.9-0.1,1.4-0.1c0.5,0,1-0.1,1.5-0.1
		c0.9-0.1,1.7-0.2,2.6-0.3c0.8-0.1,1.6-0.2,2.5-0.3c0.6-0.1,1.3-0.2,1.9-0.2c0.4,0,0.8,0,1.3-0.1c0.1,0,0.2,0,0.3,0
		c0.7,0.3,7.1-0.5,7.7-0.5c0.5,0,2.4-1,2.5,0.1c0.1,1,0.2,2.1,0.3,3.1c0,0.7-0.1,1.4-0.1,2c0,0.6-0.3,0.8-0.5,0.8
		C254.3,513.2,254.1,513.7,253.9,513.7z"/>
	<path class="st5" d="M39.3,507.2c0.8-0.1,1.6,0.5,2.4,0c0.1-0.1,0.2,0,0.3,0c0.5,0,0.9,0,1.4,0c0.3,0,0.6,0,0.9,0.1
		c0.6,0.2,1.1,0,1.7,0c0.9-0.1,1.8-0.1,2.7,0c0.5,0.1,1,0.1,1.4,0.4c0.1,0.1,0.3,0.1,0.4,0c0.9-0.2,1.7-0.1,2.6,0
		c1.1,0.2,2.3,0.1,3.4,0.2c1,0.1,2,0,2.9,0.3c0.8,0.2,1.4-0.1,2.1,0c0.4,0,0.7,0.1,1.1,0.1c0.3,0,0.6,0,1,0c1.2-0.2,2.3-0.1,3.5,0
		c1.3,0.1,2.5,0.2,3.8,0.3c0.3,0,0.6,0,0.9,0c1.7-0.1,3.5,0.2,5.2,0.3c0.6,0,1.3,0.1,1.9,0.1c1,0,2,0.1,2.9,0.2
		c1.3,0.1,2.6,0.2,3.9,0.3c0.8,0,4,0.2,4.8,0.3c0.6,0,3.3,0.2,4,0.2c0.1,0,5.5,0.2,5.6,0.2c0.6,0,1.3,0.1,2,0.1c0.2,0,0.4,0,0.6,0
		c0.6,0,0.8,0,0.7,0c-0.1,0-0.5,0-1,0c-0.6,0-0.8,0-1.2,0c-0.7,0-1.7,0.1-2.4,0.1c-0.1,0-10.5,0.4-11.1,0.5c-0.1,0-0.2,0-0.3,0
		c-0.7,0-1.3,0.1-2,0.1c-0.1,0-0.2,0-0.3,0.1c-0.1,0-2.6,0-2.8,0.1c-0.5,0.1-1,0.1-1.5,0.1c-0.4,0-0.8,0.1-1.2,0.1
		c-0.1,0-0.2,0-0.3,0c-1-0.1-1.9,0.1-2.9,0.2c-0.6,0.1-1.2,0-1.8,0c-0.3,0-0.6,0.1-0.8,0.1l-1.3,0.1c-0.2,0-0.4,0.1-0.6,0.1
		c-0.2,0-0.5,0.1-0.7,0c-0.5-0.1-1.1,0-1.6,0l-2.1,0.1c-0.7,0-1.4,0.1-2.1,0.1c-1.3,0.1-2.5,0.2-3.8,0.3l-3.6,0.3
		c-0.9,0.1-1.8,0.2-2.8,0.2c-0.6,0-1.2,0-1.9,0.1c-0.1,0-0.3,0-0.4,0c-1-0.3-10.4,0.5-11.3,0.5c-0.8,0-3.5,1-3.7-0.1
		c-0.2-1-0.4-2.1-0.4-3.1c0-0.7,0.1-1.4,0.2-2c0.1-0.6,0.4-0.8,0.8-0.8C38.8,507.7,39,507.2,39.3,507.2z"/>
</g>
</svg>
