<?xml version="1.0" encoding="utf-8"?>
<!-- Generator: Adobe Illustrator 19.0.0, SVG Export Plug-In . SVG Version: 6.00 Build 0)  -->
<svg version="1.1" id="Layer_1" xmlns="http://www.w3.org/2000/svg" xmlns:xlink="http://www.w3.org/1999/xlink" x="0px" y="0px"
	 viewBox="-79 183.3 451.3 427.7" style="enable-background:new -79 183.3 451.3 427.7;" xml:space="preserve">
<style type="text/css">
	.st0{fill:#3CBEB0;}
	.st1{fill:#2F3339;}
	.st2{fill:#00A79D;}
	.st3{fill:#CCCCCC;}
	.st4{fill:#A7A9AC;}
	.st5{fill:#F2F2F2;}
	.st6{fill:#999999;}
	.st7{fill:#FEB72F;}
</style>
<g id="XMLID_2409_">
	<path id="XMLID_2411_" class="st0" d="M292.4,611V408.2c0-78-63.2-141.3-141.3-141.3h-7.7c-78,0-141.3,63.2-141.3,141.3V611H292.4z
		"/>
	<path id="XMLID_2410_" class="st1" d="M2.2,611V408.2c0-78,63.2-141.3,141.3-141.3h7.7c78,0,141.3,63.2,141.3,141.3V611h7.7V408.2
		c0-20.1-3.9-39.6-11.7-58c-3.7-8.8-8.4-17.3-13.7-25.3c-5.3-7.9-11.4-15.3-18.2-22c-6.7-6.7-14.2-12.9-22-18.2
		c-8-5.4-16.5-10-25.3-13.7c-18.4-7.8-37.9-11.7-58-11.7h-7.7c-20.1,0-39.6,3.9-58,11.7c-8.8,3.7-17.3,8.4-25.3,13.7
		c-7.9,5.3-15.3,11.4-22,18.2c-6.7,6.7-12.9,14.2-18.2,22c-5.4,8-10,16.5-13.7,25.3c-7.8,18.4-11.7,37.9-11.7,58V611H2.2z"/>
</g>
<path id="XMLID_2408_" class="st2" d="M292.4,611V452.1c0-40.1-32.5-72.6-72.6-72.6h-145c-8.8,0-17.2,1.6-24.9,4.4
	c-1.4,6.3-2.9,12.5-4.3,18.8c-0.2-4.5-1.4-32.4-1.4-32.4s-2.4,10-4.3,18.1C17.5,400.7,2.3,424.6,2.3,452v158.8h290.1V611z"/>
<g id="XMLID_2400_">
	<path id="XMLID_2407_" class="st3" d="M185.1,570.9c0,4.9-4,8.9-8.9,8.9h-56.9c-4.9,0-8.9-4-8.9-8.9v-92.5c0-4.9,4-8.9,8.9-8.9
		h56.9c4.9,0,8.9,4,8.9,8.9V570.9z"/>
	<path id="XMLID_2406_" class="st4" d="M108.2,466.1c-0.1,0.6-0.2,1.1-0.2,1.7v97.1c0,5,4.4,9.1,9.8,9.1h59.9c5.4,0,9.8-4.1,9.8-9.1
		v-97.1c0-0.6-0.1-1.2-0.2-1.7H108.2z"/>
	<path id="XMLID_2_" class="st1" d="M176.2,469.5c4.9,0,8.9,4,8.9,8.9v92.5c0,4.9-4,8.9-8.9,8.9h-56.9c-4.9,0-8.9-4-8.9-8.9v-92.5
		c0-4.9,4-8.9,8.9-8.9H176.2 M176.2,461.8h-56.9c-9.2,0-16.6,7.5-16.6,16.6v92.5c0,9.2,7.5,16.6,16.6,16.6h56.9
		c9.2,0,16.6-7.5,16.6-16.6v-92.5C192.8,469.2,185.3,461.8,176.2,461.8L176.2,461.8z"/>
</g>
<ellipse id="XMLID_2399_" class="st1" cx="147.7" cy="489.1" rx="8.8" ry="6.7"/>
<g id="XMLID_2396_">
	<path id="XMLID_2398_" class="st4" d="M-3.5,513.3L-3.5,513.3v-17.8l0,0c-3.7,0-6.6,3-6.6,6.6v4.5C-10.1,510.3-7.1,513.3-3.5,513.3
		z"/>
	<path id="XMLID_2397_" class="st4" d="M298.6,513.3L298.6,513.3v-17.8l0,0c3.7,0,6.6,3,6.6,6.6l-0.3,6.6
		C304.9,512.4,302.3,513.3,298.6,513.3z"/>
</g>
<path id="XMLID_2395_" class="st1" d="M8.6,461.5h32.5c6.1,0,13.9,6.5,16.2,19.1c1,5.6,1.6,13,1.7,20.9l0,0v0.9c0,0,0,0,0,0.1l0,0
	l0,0v0.1v0.1l0,0l0,0c0,0,0,0,0,0.1v0.9l0,0c0,7.9-0.6,15.2-1.7,20.9c-2.3,12.6-10.1,19.1-16.2,19.1H8.6
	C-12,543.5-12.2,461.5,8.6,461.5z"/>
<path id="XMLID_2394_" class="st1" d="M41.2,461.5c6.1,0,13.9,6.5,16.2,19.1c1,5.6,1.6,13,1.7,20.9l0,0v0.9c0,0,0,0,0,0.1l0,0l0,0
	v0.1v0.1l0,0l0,0c0,0,0,0,0,0.1v0.9l0,0c0,7.9-0.6,15.2-1.7,20.9c-2.3,12.6-10.1,19.1-16.2,19.1C29.5,542.6,29.5,462.3,41.2,461.5z"
	/>
<path id="XMLID_2393_" class="st1" d="M46.8,502.4c0-16.9,2.5-30.6,5.7-30.6s5.7,13.7,5.7,30.6c0,0,0,0,0,0.1c0,0,0,0,0,0.1
	c0,16.9-2.5,30.6-5.7,30.6s-5.7-13.7-5.7-30.6C46.8,502.5,46.8,502.5,46.8,502.4L46.8,502.4z"/>
<path id="XMLID_2392_" class="st1" d="M286.9,461.5h-32.5c-6.1,0-13.9,6.5-16.2,19.1c-1,5.6-1.6,13-1.7,20.9l0,0v0.9c0,0,0,0,0,0.1
	l0,0l0,0v0.1v0.1l0,0l0,0c0,0,0,0,0,0.1v0.9l0,0c0,7.9,0.6,15.2,1.7,20.9c2.3,12.6,10.1,19.1,16.2,19.1h32.5
	C307.5,543.5,307.7,461.5,286.9,461.5z"/>
<path id="XMLID_2391_" class="st1" d="M254.3,461.5c-6.1,0-13.9,6.5-16.2,19.1c-1,5.6-1.6,13-1.7,20.9l0,0v0.9c0,0,0,0,0,0.1l0,0
	l0,0v0.1v0.1l0,0l0,0c0,0,0,0,0,0.1v0.9l0,0c0,7.9,0.6,15.2,1.7,20.9c2.3,12.6,10.1,19.1,16.2,19.1C266,542.6,266,462.3,254.3,461.5
	z"/>
<path id="XMLID_2390_" class="st1" d="M248.7,502.4c0-16.9-2.5-30.6-5.7-30.6c-3.1,0-5.7,13.7-5.7,30.6c0,0,0,0,0,0.1c0,0,0,0,0,0.1
	c0,16.9,2.5,30.6,5.7,30.6c3.1,0,5.7-13.7,5.7-30.6C248.7,502.5,248.7,502.5,248.7,502.4L248.7,502.4z"/>
<g id="XMLID_2310_">
	<g id="XMLID_5_">
		<path id="XMLID_7_" class="st3" d="M247.9,488.8h-93.4c-1.7,0-3.4-0.4-4.9-1.3c-0.6-0.3-1.3-0.6-1.9-0.6c-0.7,0-1.3,0.3-1.9,0.6
			c-1.5,0.9-3.2,1.3-4.9,1.3H47.3c-0.4,4.1-0.6,8.7-0.6,13.6c0,4.8,0.2,9.3,0.6,13.4c2.6,0.1,5.6,0.2,7.2,0.3c1,0,1.9,0.1,2.9,0.1
			c25.1,1.1,36.7,0.7,48.7,9.3c19.8,14.2,18.8,31,41.5,31s21.7-16.7,41.5-31c12-8.6,23.7-8.2,48.7-9.3c0.9,0,1.9-0.1,2.9-0.1
			c1.7-0.1,4.7-0.2,7.2-0.3c0.4-4,0.6-8.6,0.6-13.4C248.5,497.5,248.2,492.9,247.9,488.8z"/>
		<path id="XMLID_4_" class="st1" d="M147.6,486.9c0.7,0,1.3,0.3,1.9,0.6c1.5,0.8,3.2,1.3,4.9,1.3h93.4c0.4,4.1,0.6,8.7,0.6,13.6
			c0,4.8-0.2,9.3-0.6,13.4c-2.6,0.1-5.6,0.2-7.2,0.3c-1,0-1.9,0.1-2.9,0.1c-25.1,1.1-36.7,0.7-48.7,9.3c-19.8,14.2-18.8,31-41.5,31
			s-21.7-16.7-41.5-31c-12-8.6-23.7-8.2-48.7-9.3c-0.9,0-1.9-0.1-2.9-0.1c-1.7-0.1-4.7-0.2-7.2-0.3c-0.4-4-0.6-8.6-0.6-13.4
			c0-4.9,0.2-9.5,0.6-13.6h93.6c1.7,0,3.4-0.4,4.9-1.3C146.3,487.2,147,486.9,147.6,486.9 M147.6,479.2c-1.9,0-3.8,0.5-5.7,1.6
			c-0.4,0.2-0.7,0.3-1.1,0.3H47.2h-7l-0.6,7c-0.4,4.5-0.6,9.3-0.6,14.3c0,4.9,0.2,9.6,0.6,14.1l0.6,6.8l6.8,0.3
			c1.1,0,2.2,0.1,3.3,0.1c1.5,0.1,2.9,0.1,3.9,0.1s2,0.1,2.9,0.1c2.5,0.1,4.9,0.2,7.2,0.3c19.5,0.8,28.4,1.2,37.4,7.6
			c6.7,4.8,10.7,9.9,14.5,14.8c6.7,8.6,13.7,17.6,31.5,17.6s24.7-8.9,31.5-17.6c3.8-4.9,7.8-10,14.5-14.8c8.9-6.4,17.8-6.8,37.4-7.6
			c2.3-0.1,4.7-0.2,7.2-0.3c1,0,1.9-0.1,2.9-0.1c0.9,0,2.4-0.1,3.9-0.1c1.1,0,2.2-0.1,3.3-0.1l6.8-0.3l0.6-6.8
			c0.4-4.4,0.6-9.1,0.6-14.1s-0.2-9.8-0.6-14.3l-0.6-7h-7h-93.4c-0.4,0-0.8-0.1-1.1-0.3C151.5,479.8,149.5,479.2,147.6,479.2
			L147.6,479.2z"/>
	</g>
	<path id="XMLID_2379_" class="st5" d="M234.4,493h-32c-0.1-0.1-0.3-0.2-0.4-0.3c-0.3-0.2-2-0.6-2.8-1.1c0.6,0.9,1,5.1,0.9,6.6
		c-0.7-2-3.6-5.1-3.6-5.1H61.1c-3.6,0-6.5,2.9-6.5,6.5s2.9,6.5,6.5,6.5h173.4c3.6,0,6.5-2.9,6.5-6.5C240.9,495.9,238,493,234.4,493z
		"/>
	<path id="XMLID_2378_" class="st5" d="M127.9,548.5c-0.4-0.4-0.7-0.8-1-1.1C127.2,547.7,127.5,548.1,127.9,548.5z"/>
	<path id="XMLID_2377_" class="st5" d="M135.8,554.2c-0.7-0.3-1.3-0.6-1.9-1C134.5,553.6,135.1,553.9,135.8,554.2z"/>
	<path id="XMLID_2376_" class="st5" d="M138.9,555.3c-0.3-0.1-0.7-0.2-1-0.3C138.2,555.2,138.6,555.3,138.9,555.3z"/>
	<path id="XMLID_2375_" class="st5" d="M149.8,556.4c-0.7,0-1.4,0-2.1,0C148.5,556.4,149.1,556.4,149.8,556.4z"/>
	<path id="XMLID_2374_" class="st5" d="M141.9,556c-0.7-0.1-1.3-0.2-1.9-0.4C140.7,555.8,141.3,555.9,141.9,556z"/>
	<path id="XMLID_2373_" class="st5" d="M125.5,545.8c0-0.1-0.1-0.1-0.1-0.2C125.4,545.7,125.5,545.8,125.5,545.8z"/>
	<path id="XMLID_2372_" class="st5" d="M46.8,500.8c0-0.2,0-0.3,0-0.5C46.8,500.5,46.8,500.6,46.8,500.8z"/>
	<path id="XMLID_2371_" class="st5" d="M46.8,499.2c0-0.2,0-0.4,0-0.6C46.8,498.8,46.8,499,46.8,499.2z"/>
	<path id="XMLID_2370_" class="st5" d="M47.2,513.2c0-0.4-0.1-0.8-0.1-1.3C47.1,512.4,47.1,512.8,47.2,513.2z"/>
	<path id="XMLID_2369_" class="st5" d="M117.4,535.7C117.3,535.7,117.3,535.6,117.4,535.7C117.3,535.6,117.3,535.7,117.4,535.7z"/>
	<path id="XMLID_2368_" class="st5" d="M47.3,514.5c0-0.2,0-0.3,0-0.5C47.2,514.2,47.2,514.3,47.3,514.5z"/>
	<path id="XMLID_2367_" class="st5" d="M122.7,542.3c-0.3-0.3-0.5-0.6-0.8-1C122.2,541.7,122.5,542,122.7,542.3z"/>
	<path id="XMLID_2366_" class="st5" d="M162.3,552.9c-0.6,0.4-1.2,0.7-1.9,1C161,553.6,161.7,553.3,162.3,552.9z"/>
	<path id="XMLID_2365_" class="st5" d="M178.1,535.8c-0.5,0.6-1,1.2-1.5,1.8C177.1,536.9,177.6,536.3,178.1,535.8z"/>
	<path id="XMLID_2364_" class="st5" d="M173.8,541c-0.3,0.3-0.5,0.7-0.8,1C173.3,541.7,173.5,541.4,173.8,541z"/>
	<path id="XMLID_2363_" class="st5" d="M175.8,538.4c-0.3,0.4-0.6,0.7-0.8,1C175.3,539.1,175.5,538.8,175.8,538.4z"/>
	<path id="XMLID_2362_" class="st5" d="M179.9,533.7c-0.6,0.6-1.2,1.3-1.7,1.9C178.8,534.9,179.3,534.3,179.9,533.7z"/>
	<path id="XMLID_2361_" class="st5" d="M185.8,528.2c-0.8,0.7-1.6,1.4-2.3,2C184.2,529.5,184.9,528.8,185.8,528.2z"/>
	<path id="XMLID_2360_" class="st5" d="M188.3,526.1c-0.6,0.4-1.2,0.9-1.7,1.3C187.1,527,187.7,526.6,188.3,526.1z"/>
	<path id="XMLID_2359_" class="st5" d="M46.9,497.2c0-0.2,0-0.5,0-0.7C46.9,496.7,46.9,497,46.9,497.2z"/>
	<path id="XMLID_2358_" class="st5" d="M159,554.5c-0.5,0.2-0.9,0.4-1.4,0.5C158.1,554.9,158.6,554.7,159,554.5z"/>
	<path id="XMLID_2357_" class="st5" d="M172.8,542.3c-0.9,1.2-1.8,2.3-2.7,3.3C171,544.6,171.9,543.4,172.8,542.3z"/>
	<path id="XMLID_2356_" class="st5" d="M160.4,553.9c-0.4,0.2-0.9,0.4-1.4,0.6C159.5,554.3,159.9,554.1,160.4,553.9z"/>
	<path id="XMLID_2355_" class="st5" d="M169.5,546.4c-0.3,0.3-0.6,0.6-0.8,1C169,547,169.2,546.7,169.5,546.4z"/>
	<path id="XMLID_2354_" class="st5" d="M163.4,552.1c-0.4,0.3-0.8,0.5-1.2,0.8C162.7,552.7,163.1,552.4,163.4,552.1z"/>
	<path id="XMLID_2353_" class="st5" d="M47.3,490.1c0,0.4-0.1,0.9-0.1,1.3l0,0C47.2,490.9,47.2,490.5,47.3,490.1z"/>
	<path id="XMLID_2352_" class="st5" d="M248.1,488.8c0,0.5,0.1,1.1,0.1,1.6C248.2,489.9,248.2,489.4,248.1,488.8z"/>
	<path id="XMLID_2351_" class="st5" d="M248.3,490.6c0,0.5,0.1,1,0.1,1.5C248.3,491.6,248.3,491.1,248.3,490.6z"/>
	<path id="XMLID_2350_" class="st5" d="M248.3,514.2c0,0.1,0,0.2,0,0.3C248.2,514.3,248.3,514.2,248.3,514.2z"/>
	<path id="XMLID_2349_" class="st5" d="M47.1,492c0-0.1,0-0.1,0-0.2c-0.1,0.8-0.1,1.7-0.1,2.5c0-0.7,0.1-1.4,0.1-2.1
		C47.1,492.1,47.1,492.1,47.1,492z"/>
	<path id="XMLID_2348_" class="st5" d="M164,551.7c1.7-1.2,3.1-2.7,4.6-4.3C167.1,549,165.7,550.5,164,551.7z"/>
	<path id="XMLID_2347_" class="st5" d="M46.9,495.7c0-0.3,0-0.5,0-0.8C47,495.2,47,495.4,46.9,495.7z"/>
	<path id="XMLID_2346_" class="st5" d="M181.3,532.3c0.7-0.7,1.4-1.4,2.1-2C182.7,530.9,182,531.6,181.3,532.3z"/>
	<path id="XMLID_2345_" class="st5" d="M248.4,512.4c0,0.2,0,0.4,0,0.6C248.4,512.8,248.4,512.6,248.4,512.4z"/>
	<path id="XMLID_2344_" class="st5" d="M248.4,492.1c0.1,1.1,0.1,2.3,0.2,3.5C248.5,494.4,248.4,493.3,248.4,492.1z"/>
	<path id="XMLID_2343_" class="st6" d="M248.3,513c0,0.4-0.1,0.8-0.1,1.2C248.3,513.8,248.3,513.4,248.3,513z"/>
	<path id="XMLID_2342_" class="st6" d="M248.4,511.4c0,0.3,0,0.6-0.1,1C248.4,512.1,248.4,511.8,248.4,511.4z"/>
	<path id="XMLID_2341_" class="st6" d="M168.7,547.3l-0.1,0.1C168.6,547.4,168.6,547.4,168.7,547.3z"/>
	<path id="XMLID_2340_" class="st6" d="M179.9,533.7c0.4-0.5,0.9-0.9,1.4-1.4C180.8,532.7,180.4,533.2,179.9,533.7z"/>
	<path id="XMLID_2339_" class="st6" d="M178.2,535.6c-0.1,0.1-0.1,0.1-0.2,0.2C178.1,535.7,178.2,535.6,178.2,535.6z"/>
	<path id="XMLID_2338_" class="st6" d="M176.6,537.5c-0.3,0.3-0.5,0.6-0.8,0.9C176.1,538.1,176.3,537.8,176.6,537.5z"/>
	<path id="XMLID_2337_" class="st6" d="M248.1,515.8c0-0.4,0.1-0.9,0.1-1.4C248.2,514.9,248.2,515.3,248.1,515.8z"/>
	<path id="XMLID_2336_" class="st6" d="M175,539.5c-0.4,0.5-0.8,1-1.2,1.6C174.2,540.5,174.6,540,175,539.5z"/>
	<path id="XMLID_2335_" class="st6" d="M109.7,528.2c3,2.5,5.4,5,7.6,7.4C115.2,533.2,112.7,530.6,109.7,528.2z"/>
	<path id="XMLID_2334_" class="st6" d="M170.1,545.6c-0.2,0.3-0.4,0.5-0.6,0.7C169.7,546.1,169.9,545.9,170.1,545.6z"/>
	<path id="XMLID_2333_" class="st6" d="M173,542c-0.1,0.1-0.1,0.2-0.2,0.3C172.9,542.2,172.9,542.1,173,542z"/>
	<path id="XMLID_2332_" class="st6" d="M127.9,548.5c1.6,1.7,3.4,3.2,5.4,4.4C131.2,551.7,129.5,550.2,127.9,548.5z"/>
	<path id="XMLID_2331_" class="st6" d="M47.2,514c0-0.3,0-0.5-0.1-0.8C47.2,513.5,47.2,513.7,47.2,514z"/>
	<path id="XMLID_2330_" class="st6" d="M47,494.9c0-0.2,0-0.4,0-0.6C47,494.5,47,494.7,47,494.9z"/>
	<path id="XMLID_2329_" class="st6" d="M47.2,491.4c0,0.1,0,0.3,0,0.4C47.2,491.6,47.2,491.5,47.2,491.4L47.2,491.4z"/>
	<path id="XMLID_2328_" class="st6" d="M46.8,498.6c0-0.5,0-1,0-1.4C46.9,497.7,46.9,498.1,46.8,498.6z"/>
	<path id="XMLID_2327_" class="st6" d="M47.4,515.8c0-0.4-0.1-0.9-0.1-1.3C47.3,514.9,47.3,515.4,47.4,515.8z"/>
	<path id="XMLID_2326_" class="st6" d="M109.7,528.2c-0.5-0.5-1.1-0.9-1.7-1.4C108.6,527.3,109.2,527.7,109.7,528.2z"/>
	<path id="XMLID_2325_" class="st6" d="M46.8,502.5L46.8,502.5c0,3.3,0.1,6.5,0.3,9.4l0,0v0.1C46.9,508.9,46.8,505.7,46.8,502.5
		C46.8,502.4,46.8,502.4,46.8,502.5z"/>
	<path id="XMLID_2324_" class="st6" d="M46.8,500.3c0-0.4,0-0.7,0-1.1C46.8,499.5,46.8,499.9,46.8,500.3z"/>
	<path id="XMLID_2323_" class="st6" d="M46.9,496.5c0-0.3,0-0.5,0-0.8C46.9,496,46.9,496.2,46.9,496.5z"/>
	<path id="XMLID_2322_" class="st6" d="M46.8,502.4c0-0.5,0-1.1,0-1.6C46.8,501.3,46.8,501.9,46.8,502.4z"/>
	<path id="XMLID_2321_" class="st6" d="M47.3,490.1c0-0.4,0.1-0.8,0.1-1.3C47.3,489.2,47.3,489.7,47.3,490.1z"/>
	<path id="XMLID_2320_" class="st6" d="M126.8,547.3c-0.4-0.5-0.8-1-1.3-1.5C126,546.3,126.4,546.8,126.8,547.3z"/>
	<path id="XMLID_2319_" class="st6" d="M248.4,492.1L248.4,492.1L248.4,492.1z"/>
	<path id="XMLID_2318_" class="st6" d="M137.9,555.1c-0.7-0.2-1.5-0.5-2.1-0.8C136.5,554.5,137.2,554.8,137.9,555.1z"/>
	<path id="XMLID_2317_" class="st6" d="M140.1,555.7c-0.4-0.1-0.8-0.2-1.2-0.3C139.3,555.5,139.7,555.6,140.1,555.7z"/>
	<path id="XMLID_2316_" class="st6" d="M125.4,545.7c-0.9-1.1-1.8-2.2-2.7-3.3C123.6,543.5,124.5,544.6,125.4,545.7z"/>
	<path id="XMLID_2315_" class="st6" d="M248.2,490.4c0,0.1,0,0.1,0,0.2C248.2,490.6,248.2,490.5,248.2,490.4z"/>
	<path id="XMLID_2314_" class="st6" d="M122,541.4c-1.4-1.8-2.9-3.7-4.6-5.7C119.1,537.6,120.6,539.5,122,541.4z"/>
	<path id="XMLID_2313_" class="st6" d="M248.5,495.6L248.5,495.6L248.5,495.6z"/>
	<path id="XMLID_2312_" class="st5" d="M248.5,510.1c0,0.4,0,0.9-0.1,1.3C248.5,511,248.5,510.6,248.5,510.1z"/>
	<path id="XMLID_2311_" class="st5" d="M248.5,510c0-0.4,0-0.8,0.1-1.3C248.5,509.2,248.5,509.6,248.5,510z"/>
</g>
<path id="XMLID_2309_" class="st5" d="M123.5,541c6.4,8.2,10.9,14,24.3,14c13.3,0,17.9-5.9,24.3-14c1.1-1.4,2.2-2.9,3.5-4.4
	c2.4-2.9,0.3-7.2-3.4-7.2h-48.7c-3.7,0-5.7,4.3-3.4,7.2C121.2,538.1,122.4,539.6,123.5,541z"/>
<path id="XMLID_2308_" class="st5" d="M150.1,505.2c-11.5,0-19.5,7.2-19.5,25.4c0,10.8,8.7,19.5,19.5,19.5s19.5-8.7,19.5-19.5
	C169.6,512.5,161.6,505.2,150.1,505.2z"/>
<path id="XMLID_2307_" class="st1" d="M147.7,504.5c-11.5,0-19.5,7.2-19.5,25.4c0,10.8,8.7,19.5,19.5,19.5s19.5-8.7,19.5-19.5
	C167.2,511.8,159.3,504.5,147.7,504.5z"/>
<circle id="XMLID_2306_" class="st1" cx="147.7" cy="530" r="19.5"/>
<path id="XMLID_2305_" class="st2" d="M162.3,525.7c0,8-6.5,14.6-14.6,14.6c-8,0-14.6-6.5-14.6-14.6c0-0.2,0-0.4,0-0.5
	c-0.5,1.5-0.8,3.2-0.8,4.9c0,8.5,6.9,15.4,15.4,15.4s15.4-6.9,15.4-15.4c0-1.7-0.3-3.3-0.8-4.9C162.3,525.3,162.3,525.5,162.3,525.7
	z"/>
<path id="XMLID_2304_" class="st3" d="M141.4,527.6l-1.7-5c-0.3-1-0.1-2.1,0.6-2.9l3.5-4c0.7-0.8,1.8-1.2,2.8-1l5.2,1
	c1,0.2,1.9,0.9,2.3,2l1.7,5c0.3,1,0.1,2.1-0.6,2.9l-3.5,4c-0.7,0.8-1.8,1.2-2.8,1l-5.2-1C142.6,529.4,141.8,528.6,141.4,527.6z"/>
<circle id="XMLID_2303_" class="st1" cx="147.7" cy="521.8" r="4.3"/>
<g id="XMLID_1583_">
	<g id="XMLID_2106_">
		<path id="XMLID_2301_" class="st7" d="M-18,388.3c-0.3,1.7-0.6,3.3-1.2,5.1c-0.9,3.2-1.5,4.7-3.7,8.4l-2.7-1.3l-3.6-1.4l-3.6-1.3
			l0.1-1.5c2.5-1.2,3.5-1.9,4.9-3.3c2.1-2,3.2-4.1,3.6-6.9c0.7-4.6-1.1-7.8-4.6-8.3c-1.7-0.2-3.4,0.2-4.5,1.3
			c-1.2,1.1-1.9,2-4.8,6.3c-3.3,5-4.8,6.9-7.1,8.7c-2.7,2.1-6,2.9-9.7,2.4c-9.8-1.4-15.3-10.6-13.5-22.6c0.2-1.3,0.4-2.6,0.8-3.8
			c0.9-3,1.6-4.7,3.9-8.5l2.9,1.7l3.5,1.6l2.5,1.1v1.3c-2.5,1.3-3.6,2-4.7,3.3c-1.3,1.4-2.1,3.4-2.4,5.3c-0.6,3.9,1.1,6.6,4.1,7
			c1.7,0.2,3.4-0.4,4.7-1.7c1.2-1.2,2.4-2.7,4.7-6.3c3.3-5.2,4.6-6.8,6.9-8.5c2.7-1.9,6-2.7,9.5-2.2C-22,365.6-16.1,375.8-18,388.3z
			"/>
		<path id="XMLID_2299_" class="st7" d="M7.5,313.7l-1.9,3.7l-3.8,8.5l-2,4.7h-1.3c-2.6,0-3,0-5.1,0c-2.8,0.1-5.2,0.2-7,0.3
			c-4.2,0.2-6.3,0.3-11.9,0.7l0.7,2.1l0.8,2.3l5.1,2.4c5.8,2.7,9.5,4,12.6,4.4l-1.9,3.6l-3.9,8.2l-1.4,3.4c-1.2-0.8-2.1-1.4-2.7-1.7
			c-0.9-0.6-2.4-1.5-4.4-2.5s-3.6-1.8-4.6-2.3l-19.8-9.7c-3.1-1.5-5.4-2.3-6.8-2.6c-1.6-0.4-2.6,0.3-3.5,2.4l-0.2,0.5l-2.9-3
			l1.8-3.7l4.3-9l1.7-3.9c5.4,3.1,7.6,4.2,10.2,5.5l7.9,3.7l-4-11.5c-0.4-1.1-1.1-2.9-2.3-5.3c-0.6-1.4-1.2-2.7-1.8-3.7
			c-0.8-1.4-1.5-2.1-3.1-3.2l1.8-3.6l3.2-6.9l1.4-3.2l1.2,0.5c0.2,1.3,0.3,2.2,0.4,2.8c0.6,3.5,0.9,4.3,3.2,10.9l3.5,9.8l1.1-0.1
			c1.7-0.3,4.6-0.5,8.9-1c7.1-0.7,11.7-1.2,15.7-1.8c2.6-0.3,4.9-0.7,6.6-1.1c1.4-0.3,2-0.6,3.8-1.2L7.5,313.7z"/>
		<path id="XMLID_2296_" class="st7" d="M42.3,278.8l-6.5,6.7l-3.6,3.9c-2.9-2.7-4.2-3.5-8-5.5l-4.8-2.4l-3.9,3.8l-4.4,4.6L7.4,294
			l2.6,4.9c1,1.8,2.4,3.6,3.6,4.8c0.9,0.9,1.5,1.3,2.9,2l-1.8,1.7l-4.9,5l-2.5,2.8l-0.8-0.3c-0.4-1.4-0.7-2.4-0.9-3.1
			c-0.3-1-0.8-2.4-1.6-4.2c-0.8-1.9-1.3-3.5-1.7-4.5l-12.3-28c-1.9-4.2-2.4-5.3-4.3-8.3l2.6-2.9l5.3-6.5l2.6-3.6
			c2.6,1.7,3.6,2.2,6.6,3.6l29.6,13.9c3.8,1.7,9.3,3.8,12.8,4.7L42.3,278.8z M-5.3,268.6l9.7,19.3l3-2.9l2.9-3l3.4-3.7L-5.3,268.6z"
			/>
		<path id="XMLID_2294_" class="st7" d="M64,213.2l1.1,4.3l0.8,2.4l-1.3,0.9c-1.9-1-2.9-1.1-4.5-0.8c-1.9,0.3-4.3,1.2-6.4,2.4
			c-0.6,0.3-1.5,0.8-2.7,1.6l2.6,5.2l11.5,21.2c3.1,5.6,5.3,8.8,7.6,11l-3.6,1.8l-7.9,4.3l-3.2,1.9c-0.5-1.3-0.9-2.3-1.1-3
			c-0.4-1-1.2-2.6-2.2-4.6s-1.9-3.5-2.4-4.5l-10.5-19.4l-2.5-4.2l-1.4-2.4l-0.4,0.2c-3.1,1.7-4.5,2.5-6.1,3.8
			c-0.9,0.7-1.7,1.5-2.3,2.1c-1.3,1.5-1.9,2.5-2.9,5l-1.6,0.1l-0.8-2.7l-1.1-3.5l-1-3c7.8-3.9,10.6-5.4,20.5-10.8
			c10.5-5.7,13.3-7.3,21.2-11.9L64,213.2z"/>
		<path id="XMLID_2292_" class="st7" d="M124.7,238.8l0.2,3.8l0.3,2.7l-2.8,0.4l-11.1,2.6l-11.6,2.6l-8.9,2.2
			c-0.1-1.4-0.2-2.5-0.3-3.2c-0.1-1.1-0.4-2.8-0.8-5c-0.4-2.2-0.8-3.9-1.1-5l-4.9-21.6c-0.8-3.3-1.5-5.7-2.2-7
			c-0.7-1.5-1.8-1.8-4.1-1.3l-0.6,0.1l0.6-4.2l9.5-2.1l9.8-2.3c7.5-1.8,11.8-2.8,12.9-3.1c0.8-0.2,2-0.5,3.5-0.9l-0.2,2.9l-0.1,4.4
			l0.1,2.5l-1.4,0.5c-1.6-1.4-2.4-1.9-4-2c-2-0.2-4.4,0-7.1,0.7c-0.9,0.2-2.3,0.6-4.1,1.1l1.3,6.5l1.3,6.1l3-0.7l1.3-0.3l3.6-0.8
			c3-0.7,4.1-1.1,7.4-2.2l0.3,1.7l0.6,3.1l0.8,2.3c-4.7,0.8-6.9,1.2-10,1.9c-1.8,0.4-2.9,0.7-5.5,1.4l1.8,7.5
			c0.2,0.8,0.5,1.9,0.9,3.2c0.7,2.5,1.3,3.5,2.3,4.1c1.4,0.9,3.5,0.9,7.4,0c1.8-0.4,3.5-1,5-1.7c2.5-1.2,3.8-2.3,5.4-4.9h1.7
			L124.7,238.8z"/>
		<path id="XMLID_2118_" class="st7" d="M176,240.1c-1.2,1.2-2.8,2.3-4.5,3.1c-3.5,1.7-6.4,2-12.3,1.7l-1.1-0.1l-7.9-0.5l-8.9-0.4
			l-6.4-0.2c0.3-1.4,0.5-2.4,0.6-3.1c0.2-1,0.4-2.8,0.6-5c0.2-2.2,0.3-4,0.3-5.1l1.2-22.1c0.2-3.4,0.1-5.9-0.2-7.3
			c-0.3-1.6-1.3-2.2-3.6-2.3h-0.6l1.7-3.9l8.4,0.5l10.8,0.5l9.8,0.3c5.1,0.2,7.8,0.9,10.1,2.6c2.4,1.9,3.6,4.7,3.5,8.1
			c-0.1,1.8-0.6,3.7-1.5,5.1c-0.6,1-1.5,1.9-2.7,2.7c-1.8,1.3-3.1,1.9-6.6,3.1v0.6c1.1,0,2.1,0,3,0.1c7,0.3,11,4.7,10.7,11.7
			C180.2,233.9,178.6,237.5,176,240.1z M157.6,221c-1.3-0.1-2.2,0-4.6,0.2l0.7-2.7l0.6-2.6c0.8,0.1,1.5,0.1,2,0.2
			c3.9,0.2,6.2-2.5,6.4-7.4c0.2-4.6-2.2-7.3-6.8-7.5c-0.6,0-1.9,0-3.4,0l-0.5,6l-1.1,24.1c-0.2,3.6,0,5.2,0.9,6.4
			c0.7,1,2.5,1.7,4.6,1.8c5.5,0.3,8.7-3.1,9-9.5C165.7,224,163.3,221.3,157.6,221z"/>
		<path id="XMLID_2115_" class="st7" d="M208.9,257c-15.8-6.1-22-19.1-16.3-33.8c5.8-14.8,20.9-20.7,36.8-14.5
			c5.6,2.2,10.7,5.5,13.6,9c5.4,6.2,6.7,15.9,3.2,24.9C240.3,257.8,225.5,263.5,208.9,257z M226.7,214.4
			c-7.9-3.1-14.1,1.4-18.9,13.6c-4.8,12.3-3.2,20.8,4.4,23.8s14-1.8,18.6-13.7C235.6,225.9,234.2,217.3,226.7,214.4z"/>
		<path id="XMLID_2112_" class="st7" d="M275.5,300.9l-7-6.1l-4.1-3.4c2.6-3.1,3.3-4.4,5.1-8.2l2.2-4.9l-4-3.7l-4.8-4.2l-4.2-3.5
			l-4.7,2.9c-1.8,1-3.5,2.5-4.6,3.8c-0.8,1-1.2,1.5-1.9,3l-1.8-1.7l-5.3-4.6l-2.9-2.4l0.3-0.8c1.4-0.5,2.4-0.8,3-1.1
			c1-0.4,2.4-0.9,4.1-1.8c1.9-0.9,3.4-1.5,4.4-1.9l27.3-13.7c4.1-2.1,5.1-2.7,8.1-4.7l3,2.4l6.7,5l3.7,2.4c-1.6,2.7-2.1,3.7-3.3,6.7
			l-12.3,30.4c-1.6,3.9-3.3,9.5-4.1,13L275.5,300.9z M283.4,252.9l-18.8,10.6l3.1,2.9l3.1,2.7l3.8,3.2L283.4,252.9z"/>
		<path id="XMLID_2110_" class="st7" d="M306.2,350.9l-1.9-3.6l-4.9-8l-2.7-4.3l0.8-1.1c1.5-2.1,1.7-2.5,2.8-4.2
			c3.7-5.6,5.8-9,7.3-11.6c2-3.3,2.1-4.1,1.2-5.6l-0.3-0.5l2.6-0.8l2.7-1c0.5,1.1,0.9,1.9,1.2,2.5c2.3,3.9,6.3,4.7,10.7,2.1
			c4.8-2.8,5.7-6.8,2.8-11.9c-0.5-0.9-1-1.6-2.1-3c-1.1,0.5-1.8,1-2.3,1.2c-1.3,0.7-2.2,1.2-2.7,1.5l-20.9,12
			c-5.5,3.2-8.6,5.5-10.8,7.9l-1.9-3.6l-4.5-7.8l-2-3.1c1.3-0.5,2.3-0.9,3-1.2c1-0.4,2.6-1.2,4.6-2.2c2-1.1,3.5-1.9,4.5-2.5l19.2-11
			c3-1.7,5-3.1,6-4.2c1.2-1.1,1.2-2.3,0-4.3l-0.3-0.5l4.2-0.7l2,3.6l8.9,15.3l4.4,7.2l0.3,0.6c2.8,4.9,3.6,7.6,3,10.9
			c-0.5,2.9-2.3,5.2-5.6,7.1c-5.3,3.1-10.2,2.2-15.3-2.6l-1.8,3.2c-3.6,6.5-5.7,10.3-7.5,13.9c-1.2,2.4-2.1,4.4-2.8,6.1
			c-0.5,1.3-0.7,2-1.2,3.8L306.2,350.9z"/>
		<path id="XMLID_2107_" class="st7" d="M328.1,399.7c-4.4-1.9-8.5-5.5-11.1-9.7c-2.3-3.6-3.9-8.3-5-14.7c-0.1-0.4-0.1-0.7-0.1-1.1
			l-1.6-9.8l-1.3-6.1l-0.6-2.8c1.4,0,2.5,0,3.2-0.1c1.1,0,2.8-0.3,5-0.6c2.2-0.3,4-0.6,5.1-0.8l21.8-3.8c3.4-0.6,5.8-1.3,7.1-1.9
			c1.5-0.6,1.9-1.7,1.5-3.9l-0.1-0.6l4.1,0.7l0.4,2.4l1.3,7.3c1.2,6.6,2.1,11.1,2.6,13.6c0.5,2.6,0.9,5.1,1.3,7.5
			c1.1,7.1,0.9,10.7-0.8,14.6c-2.6,6-8.2,9.9-16.2,11.3C338.9,402.3,332.8,401.7,328.1,399.7z M351.9,379.9c2.7-3,3.3-6.5,2.2-12.5
			c-0.3-1.9-0.5-2.4-1.1-4l-6,0.9l-20.3,3.5c-0.9,0.2-2,0.4-3.3,0.7c-2.5,0.6-3.5,1.1-4.3,2.1c-0.9,1.3-1,2.9-0.6,5.6
			c1.5,8.5,8.5,12.1,20,10C345,385,349.2,383.1,351.9,379.9z"/>
	</g>
	<g id="XMLID_1584_">
		<g id="XMLID_2098_">
			<path id="XMLID_2103_" class="st1" d="M82.5,373.1c-1.7,0-3.3-0.1-5.1-0.4c-3.2-0.4-4.8-0.9-8.6-2.6l0.9-3.1l0.9-4l0.7-4l1.5-0.1
				c1.6,2.5,2.3,3.4,3.9,4.6c2.2,1.9,4.5,2.7,7.2,2.7c4.5,0,7.4-2.4,7.4-6.1c0-1.8-0.7-3.5-1.9-4.6c-1.3-1.1-2.2-1.7-6.8-4
				c-5.3-2.7-7.4-4-9.4-6.1c-2.4-2.5-3.7-5.9-3.7-9.9c0-10.5,8.1-17.7,20-17.7c1.3,0,2.6,0.1,3.8,0.2c3,0.4,4.8,1,8.8,2.8l-1.2,3.4
				l-1.1,3.9l-0.7,2.8l-1.3,0.1c-1.6-2.5-2.4-3.4-3.8-4.4c-1.6-1.1-3.6-1.7-5.5-1.7c-3.8,0-6.2,2.2-6.2,5.4c0,1.8,0.9,3.5,2.3,4.7
				c1.3,1.1,3,2.1,6.8,4c5.5,2.7,7.2,3.8,9.2,6c2.3,2.5,3.5,5.9,3.5,9.7C104,365.4,95,373.1,82.5,373.1z"/>
			<path id="XMLID_2101_" class="st1" d="M161.7,322.9c-0.1,1.2-0.3,3-0.4,5.4c-0.1,2.4-0.1,4.2-0.1,5.4l-0.1,13.6l0.1,8.3
				c0.1,11-8.4,17.8-22.1,17.8c-1.9,0-4-0.2-6.2-0.4c-5.4-0.8-8.8-2.3-11.5-5.1c-1.6-1.6-2.7-3.5-3.3-5.6c-0.9-3.2-1-3.7-1-9.8V348
				l0.1-14c0-3.7-0.2-6.3-0.6-7.8c-0.4-1.7-1.3-2.3-3.6-2.3h-0.6l1.5-4.2l4,0.1h9.8l4.1-0.1c-0.4,6.4-0.6,9.1-0.6,12.3l-0.1,15.7
				c0,6.6,0.2,8.7,0.9,11.3c1,4.2,4.3,6.7,8.7,6.7c3.2,0,6.3-1.3,7.9-3.5c2.1-2.5,2.6-5.4,2.6-14.6l0.1-13.7c0-3.1-0.5-7.5-1.1-10.5
				c-0.2-1.3-0.4-2-1-3.6l4,0.1h5l3.6-0.1C161.9,321.1,161.8,322.2,161.7,322.9z"/>
			<path id="XMLID_2099_" class="st1" d="M225.6,371.6l-4-0.1l-9.1,0.2l-5,0.2l-0.6-1.3c-1.1-2.5-1.3-2.8-2.2-4.9
				c-2.9-6.3-4.8-10.1-6.2-12.9c-1.8-3.6-2.4-4.1-4.1-4.1h-0.6l0.6-2.8l0.5-3c1.1,0.1,2.1,0.2,2.8,0.2c4.5,0,7.1-3.3,7.1-8.7
				c0-5.9-2.9-8.9-8.7-8.9c-1,0-1.8,0.1-3.5,0.3c-0.1,1.3-0.1,2.2-0.1,2.8c-0.1,1.6-0.1,2.7-0.1,3.3l-0.1,25.6
				c0,6.8,0.4,10.9,1.4,14.1l-4-0.1h-8.9l-3.6,0.1c0.2-1.5,0.4-2.6,0.4-3.4c0.1-1.1,0.3-3,0.4-5.4s0.1-4.3,0.1-5.4l0.1-23.5
				c0-3.7-0.2-6.3-0.6-7.8c-0.4-1.7-1.3-2.3-3.6-2.3h-0.6l1.5-4.2l4,0.1h17.4l8.3-0.1h0.6c5.5,0,8.2,0.7,10.7,3.1
				c2.2,2,3.3,4.9,3.3,8.9c0,6.6-3.1,10.6-9.8,12.7l1.8,3.4c3.7,6.8,6,10.7,8.2,14.3c1.4,2.4,2.7,4.3,3.8,5.8
				c0.9,1.2,1.3,1.7,2.6,3.1L225.6,371.6z"/>
		</g>
		<g id="XMLID_1585_">
			<path id="XMLID_2096_" class="st1" d="M123.3,392.7c-0.9,1.7-2.7,6.2-4.5,10.8l-10.7,28.1c-1.6,4-2,5.7-3.2,9.9l-4.5-0.2h-6
				l-4.5,0.2l-0.4-1.9l-1.3-4.5l-10.6-32.8c-1.2-3.9-1.8-5.4-2.5-6.9c-0.9-1.9-1.6-2.3-3.8-2.3h-0.6l1.5-4.2l4,0.1h10.1l3.9-0.1
				c0.1,1,0.1,1.9,0.1,2.4c0.2,2.5,0.6,4.6,1.5,7.8l6.5,25.4l1.8,7.2l2.3-7.2l7.7-24.6c0.8-2.5,1.2-5.1,1.2-7.3
				c0-1.4-0.1-2.1-0.5-3.7l2.3,0.1h7.6l3.4-0.1l0.4,1C124.1,391.2,123.6,392.1,123.3,392.7z"/>
			<path id="XMLID_2088_" class="st1" d="M170.4,434.3l-0.6,4l-0.3,2.9l-2.8-0.2l-11.2-0.1l-11.7-0.1l-9,0.1
				c0.2-1.5,0.4-2.6,0.4-3.4c0.1-1.1,0.3-3,0.4-5.4s0.1-4.3,0.1-5.4l0.1-23.5c0-3.7-0.2-6.3-0.6-7.8c-0.4-1.7-1.3-2.3-3.6-2.3H131
				l1.5-4.2l9.6,0.1l9.9-0.1c7.6-0.1,11.9-0.1,13-0.1c0.8,0,2-0.1,3.5-0.1l-0.9,2.9l-1.1,4.6l-0.4,2.6l-1.5,0.1
				c-1.2-1.9-1.9-2.5-3.4-3.1c-1.8-0.7-4.3-1-6.9-1c-0.9,0-2.3,0.1-4.2,0.1l-0.2,7.1l-0.1,6.6h3h1.3h3.6c3,0,4.2-0.1,7.6-0.4
				l-0.1,1.9l-0.1,3.4l0.2,2.5c-4.7-0.3-6.9-0.4-9.9-0.4c-1.8,0-2.9,0.1-5.6,0.1v8.2c0,0.9,0.1,2.1,0.1,3.6c0.1,2.8,0.4,3.9,1.3,4.9
				c1.1,1.3,3.1,1.8,7.1,1.8c1.8,0,3.5-0.1,5.1-0.5c2.7-0.7,4.1-1.5,6.2-3.8l1.6,0.4L170.4,434.3z"/>
			<path id="XMLID_1589_" class="st1" d="M222,392.4c-2.3,3.1-4.2,6-6,9.9l-6.1,12.8l-2.8,6.3l-0.1,5.4v0.9c0,5.8,0.5,10.1,1.4,13.2
				l-4-0.1h-8.8l-3.7,0.1c0.2-1.5,0.4-2.6,0.5-3.4c0.2-1.8,0.4-6.5,0.4-10.8v-5.5l-2.8-5.9l-6.9-13.7l-1.7-3.7
				c-1-2.1-1.9-3.5-2.7-4.2c-0.6-0.5-1.1-0.7-2.6-0.7h-0.6l1.4-4.2l4,0.1h9.7l3.9-0.1c0.6,4,1,5.6,2.7,9.6l5.9,14l5.1-12.2
				c1.2-2.9,2.1-6.9,2.1-9.6c0-0.4,0-0.9-0.1-1.7l4,0.1h5.6l3.6-0.1l0.1,1.1C222.9,391.1,222.3,391.8,222,392.4z"/>
		</g>
	</g>
</g>
<g id="XMLID_1576_">
	<circle id="XMLID_1582_" class="st1" cx="120" cy="564.8" r="5.2"/>
	<circle id="XMLID_1581_" class="st1" cx="175.4" cy="564.8" r="5.2"/>
</g>
<g id="XMLID_1464_">
	<circle id="XMLID_1568_" class="st1" cx="120" cy="482.3" r="5.2"/>
	<circle id="XMLID_1538_" class="st1" cx="175.4" cy="482.3" r="5.2"/>
</g>
</svg>
